<svg width="800" height="600" xmlns="http://www.w3.org/2000/svg"><rect width="100%" height="100%" fill="black"/><circle cx="191.130091" cy="462.388202" r="15" fill="white"/><circle cx="562.145797" cy="330.000000" r="15" fill="white"/><circle cx="97.212155" cy="15.000000" r="15" fill="white"/><circle cx="168.569406" cy="378.963673" r="15" fill="white"/><circle cx="190.997182" cy="417.675426" r="15" fill="white"/><circle cx="482.227247" cy="585.000000" r="15" fill="white"/><circle cx="590.865876" cy="415.436098" r="15" fill="white"/><circle cx="104.343128" cy="330.000000" r="15" fill="white"/><circle cx="94.226106" cy="189.974736" r="15" fill="white"/><circle cx="785.000000" cy="439.385815" r="15" fill="white"/><circle cx="785.000000" cy="585.000000" r="15" fill="white"/><circle cx="435.332058" cy="194.088051" r="15" fill="white"/><circle cx="103.094512" cy="497.795766" r="15" fill="white"/><circle cx="437.633198" cy="585.000000" r="15" fill="white"/><circle cx="611.174743" cy="214.652535" r="15" fill="white"/><circle cx="528.280766" cy="585.000000" r="15" fill="white"/><circle cx="258.571433" cy="541.604996" r="15" fill="white"/><circle cx="388.431382" cy="192.750624" r="15" fill="white"/><circle cx="59.721360" cy="270.000000" r="15" fill="white"/><circle cx="333.547741" cy="330.000000" r="15" fill="white"/><circle cx="321.546431" cy="154.104619" r="15" fill="white"/><circle cx="635.544089" cy="415.775825" r="15" fill="white"/><circle cx="358.048938" cy="367.217577" r="15" fill="white"/><circle cx="718.509485" cy="54.019568" r="15" fill="white"/><circle cx="693.045114" cy="139.666740" r="15" fill="white"/><circle cx="655.659421" cy="210.115330" r="15" fill="white"/><circle cx="400.635083" cy="477.038532" r="15" fill="white"/><circle cx="785.000000" cy="379.589214" r="15" fill="white"/><circle cx="308.147470" cy="57.133670" r="15" fill="white"/><circle cx="560.277668" cy="95.567449" r="15" fill="white"/><circle cx="141.872260" cy="15.000000" r="15" fill="white"/><circle cx="352.608591" cy="57.232563" r="15" fill="white"/><circle cx="280.045879" cy="412.392321" r="15" fill="white"/><circle cx="516.393540" cy="103.622555" r="15" fill="white"/><circle cx="738.428271" cy="161.828933" r="15" fill="white"/><circle cx="291.791871" cy="345.746655" r="15" fill="white"/><circle cx="402.647730" cy="369.913797" r="15" fill="white"/><circle cx="148.074470" cy="585.000000" r="15" fill="white"/><circle cx="773.633451" cy="251.767401" r="15" fill="white"/><circle cx="29.295582" cy="542.625050" r="15" fill="white"/><circle cx="303.101264" cy="113.505514" r="15" fill="white"/><circle cx="521.217532" cy="505.372263" r="15" fill="white"/><circle cx="343.765032" cy="192.779302" r="15" fill="white"/><circle cx="236.925151" cy="585.000000" r="15" fill="white"/><circle cx="15.000000" cy="143.304482" r="15" fill="white"/><circle cx="92.923793" cy="145.461986" r="15" fill="white"/><circle cx="671.414044" cy="547.396165" r="15" fill="white"/><circle cx="434.469234" cy="506.197481" r="15" fill="white"/><circle cx="515.379526" cy="15.000000" r="15" fill="white"/><circle cx="299.177778" cy="192.809813" r="15" fill="white"/><circle cx="467.008865" cy="374.227497" r="15" fill="white"/><circle cx="701.092260" cy="500.690891" r="15" fill="white"/><circle cx="56.106234" cy="32.568194" r="15" fill="white"/><circle cx="678.380935" cy="374.103630" r="15" fill="white"/><circle cx="616.531559" cy="585.000000" r="15" fill="white"/><circle cx="274.550323" cy="26.124282" r="15" fill="white"/><circle cx="191.888906" cy="507.086244" r="15" fill="white"/><circle cx="53.812683" cy="122.304415" r="15" fill="white"/><circle cx="236.392543" cy="502.777998" r="15" fill="white"/><circle cx="576.008959" cy="270.000000" r="15" fill="white"/><circle cx="429.761540" cy="99.192437" r="15" fill="white"/><circle cx="606.795870" cy="330.000000" r="15" fill="white"/><circle cx="281.369554" cy="585.000000" r="15" fill="white"/><circle cx="15.000000" cy="585.000000" r="15" fill="white"/><circle cx="695.544012" cy="230.326658" r="15" fill="white"/><circle cx="738.704612" cy="206.689187" r="15" fill="white"/><circle cx="58.966139" cy="416.752879" r="15" fill="white"/><circle cx="360.451155" cy="411.681362" r="15" fill="white"/><circle cx="533.584870" cy="255.855315" r="15" fill="white"/><circle cx="497.653104" cy="144.300747" r="15" fill="white"/><circle cx="456.161161" cy="15.000000" r="15" fill="white"/><circle cx="320.419978" cy="431.205555" r="15" fill="white"/><circle cx="59.324473" cy="585.000000" r="15" fill="white"/><circle cx="542.163128" cy="140.105045" r="15" fill="white"/><circle cx="769.382989" cy="543.094046" r="15" fill="white"/><circle cx="169.461461" cy="545.764693" r="15" fill="white"/><circle cx="740.453614" cy="330.000000" r="15" fill="white"/><circle cx="673.806847" cy="54.050286" r="15" fill="white"/><circle cx="320.695298" cy="475.771277" r="15" fill="white"/><circle cx="15.000000" cy="498.730453" r="15" fill="white"/><circle cx="15.000000" cy="228.092710" r="15" fill="white"/><circle cx="745.582465" cy="505.231993" r="15" fill="white"/><circle cx="170.184391" cy="144.004386" r="15" fill="white"/><circle cx="276.773713" cy="231.368302" r="15" fill="white"/><circle cx="442.779882" cy="462.351907" r="15" fill="white"/><circle cx="785.000000" cy="15.000000" r="15" fill="white"/><circle cx="131.064245" cy="122.614569" r="15" fill="white"/><circle cx="382.711398" cy="330.000000" r="15" fill="white"/><circle cx="15.000000" cy="185.873397" r="15" fill="white"/><circle cx="560.078340" cy="483.459581" r="15" fill="white"/><circle cx="232.210811" cy="231.358813" r="15" fill="white"/><circle cx="679.735004" cy="422.483322" r="15" fill="white"/><circle cx="146.358806" cy="417.725176" r="15" fill="white"/><circle cx="254.475118" cy="270.000000" r="15" fill="white"/><circle cx="231.237114" cy="15.000000" r="15" fill="white"/><circle cx="628.039838" cy="492.503051" r="15" fill="white"/><circle cx="381.615868" cy="517.200401" r="15" fill="white"/><circle cx="15.000000" cy="100.455476" r="15" fill="white"/><circle cx="656.494195" cy="165.417892" r="15" fill="white"/><circle cx="697.448812" cy="184.165596" r="15" fill="white"/><circle cx="303.013608" cy="546.002013" r="15" fill="white"/><circle cx="210.723685" cy="97.825212" r="15" fill="white"/><circle cx="359.381660" cy="555.761348" r="15" fill="white"/><circle cx="165.762139" cy="193.876854" r="15" fill="white"/><circle cx="399.766540" cy="432.575609" r="15" fill="white"/><circle cx="322.294559" cy="15.000000" r="15" fill="white"/><circle cx="209.943800" cy="270.000000" r="15" fill="white"/><circle cx="511.629041" cy="374.020646" r="15" fill="white"/><circle cx="740.298523" cy="15.000000" r="15" fill="white"/><circle cx="366.056564" cy="231.383790" r="15" fill="white"/><circle cx="346.084594" cy="101.431278" r="15" fill="white"/><circle cx="627.106790" cy="541.573266" r="15" fill="white"/><circle cx="102.853941" cy="452.996620" r="15" fill="white"/><circle cx="785.000000" cy="484.107174" r="15" fill="white"/><circle cx="271.558601" cy="82.045353" r="15" fill="white"/><circle cx="147.183501" cy="507.016667" r="15" fill="white"/><circle cx="388.395651" cy="115.668902" r="15" fill="white"/><circle cx="459.956426" cy="542.945231" r="15" fill="white"/><circle cx="720.825406" cy="543.616495" r="15" fill="white"/><circle cx="131.707356" cy="166.627997" r="15" fill="white"/><circle cx="212.724931" cy="372.778590" r="15" fill="white"/><circle cx="505.039260" cy="221.433324" r="15" fill="white"/><circle cx="473.567283" cy="91.334650" r="15" fill="white"/><circle cx="453.566758" cy="137.010289" r="15" fill="white"/><circle cx="257.290674" cy="374.056892" r="15" fill="white"/><circle cx="572.407765" cy="577.821648" r="15" fill="white"/><circle cx="513.772922" cy="418.400285" r="15" fill="white"/><circle cx="192.491273" cy="585.000000" r="15" fill="white"/><circle cx="729.561307" cy="259.351303" r="15" fill="white"/><circle cx="15.000000" cy="454.013056" r="15" fill="white"/><circle cx="235.555855" cy="458.064258" r="15" fill="white"/><circle cx="412.827113" cy="155.352943" r="15" fill="white"/><circle cx="120.074926" cy="270.000000" r="15" fill="white"/><circle cx="428.057082" cy="330.000000" r="15" fill="white"/><circle cx="188.999130" cy="58.924170" r="15" fill="white"/><circle cx="707.241193" cy="97.275988" r="15" fill="white"/><circle cx="737.022722" cy="461.337451" r="15" fill="white"/><circle cx="553.166217" cy="439.359848" r="15" fill="white"/><circle cx="433.085149" cy="270.000000" r="15" fill="white"/><circle cx="415.317041" cy="546.412992" r="15" fill="white"/><circle cx="15.000000" cy="409.307932" r="15" fill="white"/><circle cx="54.585779" cy="166.856594" r="15" fill="white"/><circle cx="695.580729" cy="585.000000" r="15" fill="white"/><circle cx="479.079629" cy="184.979897" r="15" fill="white"/><circle cx="199.762388" cy="330.000000" r="15" fill="white"/><circle cx="560.062170" cy="15.000000" r="15" fill="white"/><circle cx="589.111399" cy="370.842714" r="15" fill="white"/><circle cx="662.522116" cy="97.320164" r="15" fill="white"/><circle cx="254.537771" cy="192.695777" r="15" fill="white"/><circle cx="764.495918" cy="54.743846" r="15" fill="white"/><circle cx="366.087608" cy="154.156590" r="15" fill="white"/><circle cx="505.070803" cy="546.817720" r="15" fill="white"/><circle cx="299.059148" cy="270.000000" r="15" fill="white"/><circle cx="411.543960" cy="17.198810" r="15" fill="white"/><circle cx="472.790330" cy="330.000000" r="15" fill="white"/><circle cx="517.491144" cy="330.000000" r="15" fill="white"/><circle cx="650.662999" cy="15.000000" r="15" fill="white"/><circle cx="523.572900" cy="180.745605" r="15" fill="white"/><circle cx="567.891543" cy="225.888667" r="15" fill="white"/><circle cx="321.404888" cy="231.405412" r="15" fill="white"/><circle cx="325.883924" cy="585.000000" r="15" fill="white"/><circle cx="529.166665" cy="59.103941" r="15" fill="white"/><circle cx="432.801229" cy="402.759314" r="15" fill="white"/><circle cx="59.079413" cy="506.093928" r="15" fill="white"/><circle cx="779.265554" cy="185.698879" r="15" fill="white"/><circle cx="214.514427" cy="148.374033" r="15" fill="white"/><circle cx="716.642060" cy="397.239567" r="15" fill="white"/><circle cx="95.857850" cy="58.287790" r="15" fill="white"/><circle cx="187.657770" cy="231.929155" r="15" fill="white"/><circle cx="166.395181" cy="96.735784" r="15" fill="white"/><circle cx="15.000000" cy="270.000000" r="15" fill="white"/><circle cx="590.184805" cy="516.436515" r="15" fill="white"/><circle cx="629.126870" cy="55.000650" r="15" fill="white"/><circle cx="436.231281" cy="54.954743" r="15" fill="white"/><circle cx="140.525240" cy="59.704846" r="15" fill="white"/><circle cx="233.432467" cy="59.401315" r="15" fill="white"/><circle cx="15.000000" cy="330.000000" r="15" fill="white"/><circle cx="695.582129" cy="15.000000" r="15" fill="white"/><circle cx="604.823927" cy="92.487501" r="15" fill="white"/><circle cx="164.624370" cy="270.000000" r="15" fill="white"/><circle cx="470.123119" cy="427.155577" r="15" fill="white"/><circle cx="102.749957" cy="408.308315" r="15" fill="white"/><circle cx="695.906225" cy="330.000000" r="15" fill="white"/><circle cx="124.961869" cy="369.574900" r="15" fill="white"/><circle cx="388.373849" cy="270.000000" r="15" fill="white"/><circle cx="674.308136" cy="270.000000" r="15" fill="white"/><circle cx="491.159108" cy="270.000000" r="15" fill="white"/><circle cx="15.000000" cy="15.000000" r="15" fill="white"/><circle cx="277.058662" cy="154.274648" r="15" fill="white"/><circle cx="477.422452" cy="494.107528" r="15" fill="white"/><circle cx="80.118260" cy="545.480207" r="15" fill="white"/><circle cx="611.774001" cy="169.939600" r="15" fill="white"/><circle cx="337.014060" cy="517.178151" r="15" fill="white"/><circle cx="59.019415" cy="461.434602" r="15" fill="white"/><circle cx="740.290383" cy="585.000000" r="15" fill="white"/><circle cx="146.492559" cy="462.382327" r="15" fill="white"/><circle cx="568.284103" cy="180.988401" r="15" fill="white"/><circle cx="485.761671" cy="48.414551" r="15" fill="white"/><circle cx="551.262630" cy="538.441819" r="15" fill="white"/><circle cx="55.071230" cy="77.263187" r="15" fill="white"/><circle cx="651.356845" cy="330.000000" r="15" fill="white"/><circle cx="55.596614" cy="211.365000" r="15" fill="white"/><circle cx="280.179024" cy="457.070127" r="15" fill="white"/><circle cx="137.993981" cy="229.049550" r="15" fill="white"/><circle cx="35.588800" cy="369.654325" r="15" fill="white"/><circle cx="462.034204" cy="235.351907" r="15" fill="white"/><circle cx="249.943958" cy="330.000000" r="15" fill="white"/><circle cx="186.533407" cy="15.000000" r="15" fill="white"/><circle cx="103.681638" cy="585.000000" r="15" fill="white"/><circle cx="248.939263" cy="120.179443" r="15" fill="white"/><circle cx="746.909276" cy="117.919324" r="15" fill="white"/><circle cx="210.064420" cy="192.708544" r="15" fill="white"/><circle cx="360.981989" cy="456.384364" r="15" fill="white"/><circle cx="785.000000" cy="330.000000" r="15" fill="white"/><circle cx="80.273728" cy="369.669785" r="15" fill="white"/><circle cx="630.806935" cy="128.843032" r="15" fill="white"/><circle cx="586.309208" cy="133.187948" r="15" fill="white"/><circle cx="15.000000" cy="57.698249" r="15" fill="white"/><circle cx="785.000000" cy="94.487607" r="15" fill="white"/><circle cx="392.975610" cy="585.000000" r="15" fill="white"/><circle cx="92.518040" cy="101.473925" r="15" fill="white"/><circle cx="604.685397" cy="17.578817" r="15" fill="white"/><circle cx="235.422394" cy="413.342954" r="15" fill="white"/><circle cx="284.340139" cy="504.472288" r="15" fill="white"/><circle cx="366.953183" cy="15.000000" r="15" fill="white"/><circle cx="317.486970" cy="386.501754" r="15" fill="white"/><circle cx="93.528113" cy="234.500909" r="15" fill="white"/><circle cx="214.121936" cy="545.878194" r="15" fill="white"/><circle cx="551.360594" cy="394.485802" r="15" fill="white"/><circle cx="785.000000" cy="141.347360" r="15" fill="white"/><circle cx="508.987649" cy="462.575473" r="15" fill="white"/><circle cx="394.780770" cy="71.479374" r="15" fill="white"/><circle cx="59.667203" cy="330.000000" r="15" fill="white"/><circle cx="343.700980" cy="270.000000" r="15" fill="white"/><circle cx="633.784574" cy="371.100358" r="15" fill="white"/><circle cx="579.552424" cy="55.233535" r="15" fill="white"/><circle cx="155.052522" cy="330.863112" r="15" fill="white"/><circle cx="597.828263" cy="459.562782" r="15" fill="white"/><circle cx="410.742423" cy="231.370710" r="15" fill="white"/><circle cx="124.784512" cy="545.645332" r="15" fill="white"/></svg>