<svg width="800" height="600" xmlns="http://www.w3.org/2000/svg"><rect width="100%" height="100%" fill="black"/><g transform="rotate(179.912781 339.354274 500.656738)"><ellipse cx="339.354274" cy="500.656738" rx="18.462148" ry="18.114352" fill="white"/></g><g transform="rotate(241.595805 747.217050 497.788819)"><ellipse cx="747.217050" cy="497.788819" rx="12.413298" ry="12.497278" fill="white"/></g><g transform="rotate(343.983689 659.775116 188.665541)"><ellipse cx="659.775116" cy="188.665541" rx="14.088607" ry="13.575462" fill="white"/></g><g transform="rotate(327.307743 122.226255 54.742623)"><ellipse cx="122.226255" cy="54.742623" rx="11.458143" ry="12.835502" fill="white"/></g><g transform="rotate(139.458977 706.032807 372.778307)"><ellipse cx="706.032807" cy="372.778307" rx="15.470284" ry="14.441005" fill="white"/></g><g transform="rotate(191.342719 133.747625 193.908919)"><ellipse cx="133.747625" cy="193.908919" rx="12.646149" ry="13.324121" fill="white"/></g><g transform="rotate(22.131639 471.431557 186.811463)"><ellipse cx="471.431557" cy="186.811463" rx="15.465189" ry="13.881209" fill="white"/></g><g transform="rotate(121.321060 554.387321 398.556232)"><ellipse cx="554.387321" cy="398.556232" rx="15.685849" ry="15.140085" fill="white"/></g><g transform="rotate(243.279201 623.585759 157.048408)"><ellipse cx="623.585759" cy="157.048408" rx="19.492014" ry="17.736962" fill="white"/></g><g transform="rotate(129.256864 389.237060 17.286542)"><ellipse cx="389.237060" cy="17.286542" rx="16.988110" ry="17.372519" fill="white"/></g><g transform="rotate(96.465166 546.311308 540.306009)"><ellipse cx="546.311308" cy="540.306009" rx="12.151123" ry="11.853453" fill="white"/></g><g transform="rotate(139.098071 15.186605 270.000000)"><ellipse cx="15.186605" cy="270.000000" rx="14.246957" ry="16.057134" fill="white"/></g><g transform="rotate(230.628869 349.616964 457.037738)"><ellipse cx="349.616964" cy="457.037738" rx="13.208213" ry="13.479401" fill="white"/></g><g transform="rotate(47.731745 579.712914 148.495385)"><ellipse cx="579.712914" cy="148.495385" rx="15.900961" ry="16.836596" fill="white"/></g><g transform="rotate(187.022081 343.901446 369.433109)"><ellipse cx="343.901446" cy="369.433109" rx="16.950080" ry="15.742150" fill="white"/></g><g transform="rotate(126.640056 51.457577 208.619045)"><ellipse cx="51.457577" cy="208.619045" rx="14.274932" ry="15.360164" fill="white"/></g><g transform="rotate(133.385748 536.218202 225.712606)"><ellipse cx="536.218202" cy="225.712606" rx="12.677273" ry="11.986025" fill="white"/></g><g transform="rotate(84.444078 477.320668 15.923071)"><ellipse cx="477.320668" cy="15.923071" rx="16.614416" ry="16.497334" fill="white"/></g><g transform="rotate(88.776892 580.082938 225.359492)"><ellipse cx="580.082938" cy="225.359492" rx="13.406270" ry="13.499326" fill="white"/></g><g transform="rotate(203.548337 360.898917 226.652603)"><ellipse cx="360.898917" cy="226.652603" rx="16.316582" ry="16.623562" fill="white"/></g><g transform="rotate(230.837437 781.952349 174.447673)"><ellipse cx="781.952349" cy="174.447673" rx="16.439732" ry="14.887024" fill="white"/></g><g transform="rotate(270.975529 338.736380 580.724093)"><ellipse cx="338.736380" cy="580.724093" rx="17.144363" ry="19.377800" fill="white"/></g><g transform="rotate(183.125923 57.087522 12.284940)"><ellipse cx="57.087522" cy="12.284940" rx="11.207877" ry="11.304854" fill="white"/></g><g transform="rotate(243.432798 428.312832 498.675286)"><ellipse cx="428.312832" cy="498.675286" rx="16.981520" ry="16.693601" fill="white"/></g><g transform="rotate(15.819149 143.488888 540.800616)"><ellipse cx="143.488888" cy="540.800616" rx="17.772278" ry="17.177454" fill="white"/></g><g transform="rotate(300.986491 58.733765 526.087411)"><ellipse cx="58.733765" cy="526.087411" rx="14.571152" ry="12.768844" fill="white"/></g><g transform="rotate(236.909402 488.413949 59.163642)"><ellipse cx="488.413949" cy="59.163642" rx="14.019928" ry="15.290992" fill="white"/></g><g transform="rotate(29.335940 651.325660 13.090912)"><ellipse cx="651.325660" cy="13.090912" rx="12.115125" ry="12.066417" fill="white"/></g><g transform="rotate(347.433640 380.835874 400.034247)"><ellipse cx="380.835874" cy="400.034247" rx="18.919825" ry="18.462150" fill="white"/></g><g transform="rotate(288.093839 27.058392 330.000000)"><ellipse cx="27.058392" cy="330.000000" rx="14.813900" ry="15.116642" fill="white"/></g><g transform="rotate(1.276394 222.584400 270.000000)"><ellipse cx="222.584400" cy="270.000000" rx="14.371863" ry="16.850197" fill="white"/></g><g transform="rotate(181.623181 472.672557 493.682978)"><ellipse cx="472.672557" cy="493.682978" rx="17.461285" ry="14.946858" fill="white"/></g><g transform="rotate(126.484725 92.392281 403.571545)"><ellipse cx="92.392281" cy="403.571545" rx="15.227170" ry="14.529857" fill="white"/></g><g transform="rotate(342.192386 782.664728 569.835285)"><ellipse cx="782.664728" cy="569.835285" rx="15.908379" ry="18.730323" fill="white"/></g><g transform="rotate(157.806123 249.167747 500.073532)"><ellipse cx="249.167747" cy="500.073532" rx="13.835393" ry="13.447283" fill="white"/></g><g transform="rotate(350.591946 134.468799 270.000000)"><ellipse cx="134.468799" cy="270.000000" rx="16.143771" ry="14.367348" fill="white"/></g><g transform="rotate(279.951210 320.414610 330.000000)"><ellipse cx="320.414610" cy="330.000000" rx="16.324988" ry="16.106896" fill="white"/></g><g transform="rotate(328.932012 78.531175 50.710338)"><ellipse cx="78.531175" cy="50.710338" rx="13.312417" ry="12.632064" fill="white"/></g><g transform="rotate(175.254789 179.730848 43.983818)"><ellipse cx="179.730848" cy="43.983818" rx="13.222962" ry="12.601732" fill="white"/></g><g transform="rotate(62.069429 405.166664 543.448512)"><ellipse cx="405.166664" cy="543.448512" rx="15.683416" ry="15.199616" fill="white"/></g><g transform="rotate(307.845476 738.909781 339.186245)"><ellipse cx="738.909781" cy="339.186245" rx="15.407070" ry="18.232716" fill="white"/></g><g transform="rotate(270.628164 243.613891 157.129659)"><ellipse cx="243.613891" cy="157.129659" rx="12.795886" ry="12.460753" fill="white"/></g><g transform="rotate(351.332887 145.867476 17.141633)"><ellipse cx="145.867476" cy="17.141633" rx="17.785114" ry="17.760206" fill="white"/></g><g transform="rotate(278.551816 58.852165 442.985600)"><ellipse cx="58.852165" cy="442.985600" rx="17.464733" ry="17.999553" fill="white"/></g><g transform="rotate(67.055201 467.933736 98.812395)"><ellipse cx="467.933736" cy="98.812395" rx="12.636099" ry="13.866599" fill="white"/></g><g transform="rotate(316.403046 321.627021 129.072733)"><ellipse cx="321.627021" cy="129.072733" rx="16.121786" ry="18.312002" fill="white"/></g><g transform="rotate(220.407917 300.368154 167.136949)"><ellipse cx="300.368154" cy="167.136949" rx="13.693876" ry="13.902232" fill="white"/></g><g transform="rotate(144.980879 541.629152 495.834793)"><ellipse cx="541.629152" cy="495.834793" rx="14.524239" ry="14.945897" fill="white"/></g><g transform="rotate(79.986257 249.548548 582.760223)"><ellipse cx="249.548548" cy="582.760223" rx="15.593359" ry="15.935109" fill="white"/></g><g transform="rotate(237.494525 528.720383 362.382930)"><ellipse cx="528.720383" cy="362.382930" rx="17.381599" ry="18.674125" fill="white"/></g><g transform="rotate(308.732691 177.076738 119.197425)"><ellipse cx="177.076738" cy="119.197425" rx="14.404189" ry="13.595785" fill="white"/></g><g transform="rotate(192.005812 323.194604 204.562135)"><ellipse cx="323.194604" cy="204.562135" rx="15.730830" ry="14.639840" fill="white"/></g><g transform="rotate(161.331936 177.544534 194.388097)"><ellipse cx="177.544534" cy="194.388097" rx="18.074828" ry="15.404036" fill="white"/></g><g transform="rotate(51.995483 405.013315 226.298264)"><ellipse cx="405.013315" cy="226.298264" rx="18.121257" ry="15.935431" fill="white"/></g><g transform="rotate(150.174392 355.645573 270.000000)"><ellipse cx="355.645573" cy="270.000000" rx="16.442978" ry="15.976338" fill="white"/></g><g transform="rotate(40.786349 186.745197 330.000000)"><ellipse cx="186.745197" cy="330.000000" rx="12.179842" ry="12.606942" fill="white"/></g><g transform="rotate(116.255078 136.235696 412.383901)"><ellipse cx="136.235696" cy="412.383901" rx="13.927142" ry="13.061505" fill="white"/></g><g transform="rotate(0.814877 221.892219 194.694884)"><ellipse cx="221.892219" cy="194.694884" rx="13.968553" ry="14.141500" fill="white"/></g><g transform="rotate(325.293817 427.629167 587.512540)"><ellipse cx="427.629167" cy="587.512540" rx="12.390851" ry="12.526225" fill="white"/></g><g transform="rotate(340.763651 617.194593 201.226436)"><ellipse cx="617.194593" cy="201.226436" rx="15.023865" ry="15.538682" fill="white"/></g><g transform="rotate(240.911785 199.148625 157.049447)"><ellipse cx="199.148625" cy="157.049447" rx="15.805549" ry="14.359299" fill="white"/></g><g transform="rotate(351.190745 298.633203 91.801612)"><ellipse cx="298.633203" cy="91.801612" rx="14.940918" ry="16.179919" fill="white"/></g><g transform="rotate(53.707329 656.522452 270.000000)"><ellipse cx="656.522452" cy="270.000000" rx="18.112850" ry="15.484083" fill="white"/></g><g transform="rotate(323.248466 142.149373 330.000000)"><ellipse cx="142.149373" cy="330.000000" rx="14.298609" ry="15.015540" fill="white"/></g><g transform="rotate(135.533587 97.519342 330.000000)"><ellipse cx="97.519342" cy="330.000000" rx="13.739008" ry="12.215278" fill="white"/></g><g transform="rotate(197.197261 448.931510 225.989625)"><ellipse cx="448.931510" cy="225.989625" rx="12.994384" ry="14.117329" fill="white"/></g><g transform="rotate(223.745818 644.440904 106.120890)"><ellipse cx="644.440904" cy="106.120890" rx="14.158408" ry="14.694611" fill="white"/></g><g transform="rotate(203.087786 710.967186 149.623317)"><ellipse cx="710.967186" cy="149.623317" rx="12.138186" ry="13.859660" fill="white"/></g><g transform="rotate(309.023004 320.579330 54.242808)"><ellipse cx="320.579330" cy="54.242808" rx="11.362033" ry="12.383856" fill="white"/></g><g transform="rotate(209.218315 715.407888 416.390941)"><ellipse cx="715.407888" cy="416.390941" rx="13.343840" ry="15.098166" fill="white"/></g><g transform="rotate(184.929600 160.850893 582.002712)"><ellipse cx="160.850893" cy="582.002712" rx="18.906398" ry="19.087230" fill="white"/></g><g transform="rotate(19.969938 492.628461 225.758923)"><ellipse cx="492.628461" cy="225.758923" rx="13.169277" ry="13.325821" fill="white"/></g><g transform="rotate(22.223562 279.014001 409.250923)"><ellipse cx="279.014001" cy="409.250923" rx="16.715997" ry="17.461003" fill="white"/></g><g transform="rotate(218.118961 103.396625 446.904560)"><ellipse cx="103.396625" cy="446.904560" rx="13.565626" ry="13.088802" fill="white"/></g><g transform="rotate(338.952867 178.340296 270.000000)"><ellipse cx="178.340296" cy="270.000000" rx="16.299594" ry="15.886855" fill="white"/></g><g transform="rotate(29.225793 592.814705 373.256422)"><ellipse cx="592.814705" cy="373.256422" rx="15.612044" ry="18.379964" fill="white"/></g><g transform="rotate(120.326880 247.948067 372.638172)"><ellipse cx="247.948067" cy="372.638172" rx="16.483383" ry="16.378343" fill="white"/></g><g transform="rotate(225.438418 359.638195 541.200422)"><ellipse cx="359.638195" cy="541.200422" rx="14.927335" ry="16.494637" fill="white"/></g><g transform="rotate(242.109762 179.501585 425.684884)"><ellipse cx="179.501585" cy="425.684884" rx="12.442793" ry="12.992437" fill="white"/></g><g transform="rotate(208.486972 782.526841 525.128798)"><ellipse cx="782.526841" cy="525.128798" rx="16.564183" ry="18.953265" fill="white"/></g><g transform="rotate(105.136906 532.591388 57.849596)"><ellipse cx="532.591388" cy="57.849596" rx="15.425686" ry="15.825827" fill="white"/></g><g transform="rotate(332.952848 155.559678 232.089010)"><ellipse cx="155.559678" cy="232.089010" rx="13.473150" ry="14.954456" fill="white"/></g><g transform="rotate(116.634865 75.249349 484.551341)"><ellipse cx="75.249349" cy="484.551341" rx="16.532282" ry="15.790371" fill="white"/></g><g transform="rotate(302.003993 629.075089 534.027303)"><ellipse cx="629.075089" cy="534.027303" rx="14.000451" ry="16.139408" fill="white"/></g><g transform="rotate(258.305944 281.531880 530.934075)"><ellipse cx="281.531880" cy="530.934075" rx="12.855512" ry="14.730616" fill="white"/></g><g transform="rotate(33.769167 14.461845 520.193087)"><ellipse cx="14.461845" cy="520.193087" rx="14.155817" ry="14.004336" fill="white"/></g><g transform="rotate(243.491807 705.770085 514.467198)"><ellipse cx="705.770085" cy="514.467198" rx="14.572265" ry="16.697901" fill="white"/></g><g transform="rotate(44.168081 200.006541 232.258382)"><ellipse cx="200.006541" cy="232.258382" rx="13.477605" ry="13.614780" fill="white"/></g><g transform="rotate(285.172311 383.936578 503.676434)"><ellipse cx="383.936578" cy="503.676434" rx="16.311106" ry="13.915562" fill="white"/></g><g transform="rotate(163.822293 781.061797 111.705981)"><ellipse cx="781.061797" cy="111.705981" rx="16.827958" ry="15.436891" fill="white"/></g><g transform="rotate(14.002806 427.049381 187.625949)"><ellipse cx="427.049381" cy="187.625949" rx="14.181110" ry="12.295830" fill="white"/></g><g transform="rotate(162.295571 289.047048 232.033858)"><ellipse cx="289.047048" cy="232.033858" rx="15.411591" ry="14.778810" fill="white"/></g><g transform="rotate(204.624300 565.768757 15.118620)"><ellipse cx="565.768757" cy="15.118620" rx="15.211881" ry="13.644785" fill="white"/></g><g transform="rotate(72.756924 507.879320 466.261492)"><ellipse cx="507.879320" cy="466.261492" rx="12.383781" ry="13.690629" fill="white"/></g><g transform="rotate(234.998200 648.777227 330.000000)"><ellipse cx="648.777227" cy="330.000000" rx="13.697538" ry="13.125376" fill="white"/></g><g transform="rotate(302.351747 266.357274 194.432576)"><ellipse cx="266.357274" cy="194.432576" rx="17.693522" ry="17.779264" fill="white"/></g><g transform="rotate(118.024011 66.369874 123.253314)"><ellipse cx="66.369874" cy="123.253314" rx="17.472913" ry="15.121724" fill="white"/></g><g transform="rotate(43.829319 425.449757 110.953039)"><ellipse cx="425.449757" cy="110.953039" rx="14.116164" ry="15.549041" fill="white"/></g><g transform="rotate(119.260976 267.016993 270.000000)"><ellipse cx="267.016993" cy="270.000000" rx="16.274958" ry="17.341790" fill="white"/></g><g transform="rotate(36.112730 608.776249 25.975874)"><ellipse cx="608.776249" cy="25.975874" rx="18.071455" ry="18.284371" fill="white"/></g><g transform="rotate(220.234699 521.490491 14.695702)"><ellipse cx="521.490491" cy="14.695702" rx="15.138762" ry="14.231388" fill="white"/></g><g transform="rotate(332.983340 782.437916 352.299271)"><ellipse cx="782.437916" cy="352.299271" rx="15.949497" ry="17.730528" fill="white"/></g><g transform="rotate(198.144349 364.936148 330.000000)"><ellipse cx="364.936148" cy="330.000000" rx="12.880419" ry="13.083359" fill="white"/></g><g transform="rotate(185.580881 299.184289 369.346178)"><ellipse cx="299.184289" cy="369.346178" rx="14.646235" ry="14.176095" fill="white"/></g><g transform="rotate(7.711009 338.292685 413.778642)"><ellipse cx="338.292685" cy="413.778642" rx="18.888367" ry="17.464817" fill="white"/></g><g transform="rotate(276.192313 467.264732 417.164293)"><ellipse cx="467.264732" cy="417.164293" rx="16.472571" ry="16.482141" fill="white"/></g><g transform="rotate(87.429081 12.022690 227.544822)"><ellipse cx="12.022690" cy="227.544822" rx="11.870407" ry="12.466118" fill="white"/></g><g transform="rotate(54.548426 91.278906 270.000000)"><ellipse cx="91.278906" cy="270.000000" rx="13.087137" ry="13.347814" fill="white"/></g><g transform="rotate(236.540482 669.988771 460.636832)"><ellipse cx="669.988771" cy="460.636832" rx="17.943970" ry="17.180205" fill="white"/></g><g transform="rotate(223.368267 343.333137 13.081511)"><ellipse cx="343.333137" cy="13.081511" rx="12.160842" ry="13.207248" fill="white"/></g><g transform="rotate(266.454012 447.073529 457.058265)"><ellipse cx="447.073529" cy="457.058265" rx="14.562465" ry="15.762205" fill="white"/></g><g transform="rotate(162.870743 604.134777 330.000000)"><ellipse cx="604.134777" cy="330.000000" rx="15.876949" ry="14.261850" fill="white"/></g><g transform="rotate(340.621447 628.017769 446.344263)"><ellipse cx="628.017769" cy="446.344263" rx="11.967641" ry="12.132178" fill="white"/></g><g transform="rotate(228.784155 514.440777 175.373421)"><ellipse cx="514.440777" cy="175.373421" rx="14.063149" ry="13.863419" fill="white"/></g><g transform="rotate(247.293989 599.911164 108.984699)"><ellipse cx="599.911164" cy="108.984699" rx="13.516086" ry="13.625083" fill="white"/></g><g transform="rotate(340.196054 404.249004 149.901913)"><ellipse cx="404.249004" cy="149.901913" rx="12.252759" ry="12.791676" fill="white"/></g><g transform="rotate(302.897839 294.180356 583.114541)"><ellipse cx="294.180356" cy="583.114541" rx="15.531706" ry="16.772899" fill="white"/></g><g transform="rotate(17.400028 420.096080 421.419349)"><ellipse cx="420.096080" cy="421.419349" rx="14.290436" ry="13.831381" fill="white"/></g><g transform="rotate(350.282781 774.624022 262.993110)"><ellipse cx="774.624022" cy="262.993110" rx="13.144214" ry="12.209950" fill="white"/></g><g transform="rotate(143.965491 515.029168 572.244592)"><ellipse cx="515.029168" cy="572.244592" rx="12.061372" ry="12.913819" fill="white"/></g><g transform="rotate(160.055352 311.476710 270.000000)"><ellipse cx="311.476710" cy="270.000000" rx="13.859353" ry="13.134601" fill="white"/></g><g transform="rotate(264.500632 557.449503 585.766184)"><ellipse cx="557.449503" cy="585.766184" rx="12.818180" ry="13.192786" fill="white"/></g><g transform="rotate(187.677057 232.137840 52.939898)"><ellipse cx="232.137840" cy="52.939898" rx="13.601159" ry="13.144514" fill="white"/></g><g transform="rotate(49.339057 102.185341 15.976942)"><ellipse cx="102.185341" cy="15.976942" rx="15.189890" ry="16.734285" fill="white"/></g><g transform="rotate(23.087003 90.666640 191.531797)"><ellipse cx="90.666640" cy="191.531797" rx="16.661271" ry="13.905452" fill="white"/></g><g transform="rotate(175.559424 745.927341 84.198146)"><ellipse cx="745.927341" cy="84.198146" rx="14.102515" ry="13.531976" fill="white"/></g><g transform="rotate(210.747175 275.873411 330.000000)"><ellipse cx="275.873411" cy="330.000000" rx="12.785571" ry="12.112274" fill="white"/></g><g transform="rotate(197.776195 12.095827 142.292585)"><ellipse cx="12.095827" cy="142.292585" rx="12.117867" ry="11.315682" fill="white"/></g><g transform="rotate(210.220010 200.305223 82.199740)"><ellipse cx="200.305223" cy="82.199740" rx="15.583385" ry="12.909629" fill="white"/></g><g transform="rotate(33.909139 244.537115 232.278573)"><ellipse cx="244.537115" cy="232.278573" rx="14.417952" ry="15.991908" fill="white"/></g><g transform="rotate(336.824342 116.391685 586.520812)"><ellipse cx="116.391685" cy="586.520812" rx="13.586571" ry="12.838701" fill="white"/></g><g transform="rotate(173.978035 121.418357 369.588521)"><ellipse cx="121.418357" cy="369.588521" rx="14.955204" ry="15.893770" fill="white"/></g><g transform="rotate(157.461502 15.228888 184.669008)"><ellipse cx="15.228888" cy="184.669008" rx="16.662394" ry="14.206878" fill="white"/></g><g transform="rotate(180.383652 557.502374 186.831930)"><ellipse cx="557.502374" cy="186.831930" rx="15.482059" ry="15.042285" fill="white"/></g><g transform="rotate(202.803699 276.118252 54.278684)"><ellipse cx="276.118252" cy="54.278684" rx="17.161706" ry="15.625088" fill="white"/></g><g transform="rotate(196.048566 750.447731 443.906325)"><ellipse cx="750.447731" cy="443.906325" rx="14.501486" ry="14.432635" fill="white"/></g><g transform="rotate(172.130942 156.313945 80.986146)"><ellipse cx="156.313945" cy="80.986146" rx="16.076022" ry="16.083581" fill="white"/></g><g transform="rotate(306.369070 596.367085 564.197098)"><ellipse cx="596.367085" cy="564.197098" rx="17.525804" ry="17.544800" fill="white"/></g><g transform="rotate(159.718351 254.164173 91.678543)"><ellipse cx="254.164173" cy="91.678543" rx="16.998491" ry="15.472988" fill="white"/></g><g transform="rotate(285.453010 277.145195 129.615068)"><ellipse cx="277.145195" cy="129.615068" rx="14.860644" ry="13.257128" fill="white"/></g><g transform="rotate(308.056894 15.418477 475.499441)"><ellipse cx="15.418477" cy="475.499441" rx="14.358113" ry="15.281726" fill="white"/></g><g transform="rotate(199.038231 661.371973 372.646928)"><ellipse cx="661.371973" cy="372.646928" rx="16.075786" ry="13.473829" fill="white"/></g><g transform="rotate(286.290880 617.578959 248.844395)"><ellipse cx="617.578959" cy="248.844395" rx="15.929980" ry="15.505720" fill="white"/></g><g transform="rotate(194.479479 662.321487 504.436342)"><ellipse cx="662.321487" cy="504.436342" rx="12.178842" ry="12.177992" fill="white"/></g><g transform="rotate(170.245115 166.130218 369.672771)"><ellipse cx="166.130218" cy="369.672771" rx="12.528865" ry="12.194387" fill="white"/></g><g transform="rotate(90.553958 491.657371 137.009983)"><ellipse cx="491.657371" cy="137.009983" rx="14.412665" ry="13.165559" fill="white"/></g><g transform="rotate(250.437241 670.768113 416.136818)"><ellipse cx="670.768113" cy="416.136818" rx="18.132959" ry="17.756266" fill="white"/></g><g transform="rotate(37.945661 741.064308 541.764284)"><ellipse cx="741.064308" cy="541.764284" rx="13.258628" ry="12.723587" fill="white"/></g><g transform="rotate(48.512165 54.866857 165.033836)"><ellipse cx="54.866857" cy="165.033836" rx="14.532814" ry="13.233268" fill="white"/></g><g transform="rotate(33.495046 99.024992 545.363610)"><ellipse cx="99.024992" cy="545.363610" rx="14.341507" ry="15.589913" fill="white"/></g><g transform="rotate(195.661605 15.813940 56.218455)"><ellipse cx="15.813940" cy="56.218455" rx="15.412028" ry="14.888714" fill="white"/></g><g transform="rotate(152.976857 433.247047 17.774326)"><ellipse cx="433.247047" cy="17.774326" rx="17.334808" ry="16.451874" fill="white"/></g><g transform="rotate(283.073994 255.108656 15.555422)"><ellipse cx="255.108656" cy="15.555422" rx="15.649391" ry="14.910092" fill="white"/></g><g transform="rotate(293.589112 559.473575 330.000000)"><ellipse cx="559.473575" cy="330.000000" rx="15.159922" ry="15.079941" fill="white"/></g><g transform="rotate(176.770526 402.102701 73.553526)"><ellipse cx="402.102701" cy="73.553526" rx="11.492059" ry="13.561252" fill="white"/></g><g transform="rotate(85.421097 205.161431 587.657018)"><ellipse cx="205.161431" cy="587.657018" rx="11.271165" ry="12.645873" fill="white"/></g><g transform="rotate(218.514453 662.059705 56.313291)"><ellipse cx="662.059705" cy="56.313291" rx="15.045735" ry="13.810769" fill="white"/></g><g transform="rotate(246.020394 12.546691 372.278841)"><ellipse cx="12.546691" cy="372.278841" rx="13.568100" ry="13.054005" fill="white"/></g><g transform="rotate(18.680795 579.265204 471.704331)"><ellipse cx="579.265204" cy="471.704331" rx="14.354509" ry="14.759677" fill="white"/></g><g transform="rotate(237.816755 472.097495 584.230847)"><ellipse cx="472.097495" cy="584.230847" rx="16.606502" ry="16.124739" fill="white"/></g><g transform="rotate(18.490957 578.201424 270.000000)"><ellipse cx="578.201424" cy="270.000000" rx="12.950497" ry="13.335202" fill="white"/></g><g transform="rotate(9.486719 62.325363 357.445269)"><ellipse cx="62.325363" cy="357.445269" rx="14.100098" ry="13.432315" fill="white"/></g><g transform="rotate(139.984052 619.927135 490.277789)"><ellipse cx="619.927135" cy="490.277789" rx="13.162011" ry="11.553222" fill="white"/></g><g transform="rotate(31.484298 363.894086 52.541551)"><ellipse cx="363.894086" cy="52.541551" rx="16.023494" ry="14.242849" fill="white"/></g><g transform="rotate(105.886314 749.567292 382.591553)"><ellipse cx="749.567292" cy="382.591553" rx="14.451143" ry="16.563095" fill="white"/></g><g transform="rotate(218.454895 299.085310 17.836935)"><ellipse cx="299.085310" cy="17.836935" rx="18.007159" ry="17.149248" fill="white"/></g><g transform="rotate(65.839135 627.359551 401.643549)"><ellipse cx="627.359551" cy="401.643549" rx="18.330341" ry="16.336330" fill="white"/></g><g transform="rotate(5.055995 449.662733 538.980010)"><ellipse cx="449.662733" cy="538.980010" rx="17.783690" ry="17.661893" fill="white"/></g><g transform="rotate(183.961404 51.919990 82.461422)"><ellipse cx="51.919990" cy="82.461422" rx="16.031145" ry="15.763695" fill="white"/></g><g transform="rotate(354.022623 705.444876 65.673815)"><ellipse cx="705.444876" cy="65.673815" rx="12.335358" ry="12.850633" fill="white"/></g><g transform="rotate(127.021561 671.494291 548.126619)"><ellipse cx="671.494291" cy="548.126619" rx="15.818729" ry="16.263396" fill="white"/></g><g transform="rotate(23.067701 704.057483 193.762933)"><ellipse cx="704.057483" cy="193.762933" rx="14.185336" ry="14.575485" fill="white"/></g><g transform="rotate(66.040981 782.357095 412.816960)"><ellipse cx="782.357095" cy="412.816960" rx="17.321284" ry="17.168821" fill="white"/></g><g transform="rotate(72.046390 453.920424 330.000000)"><ellipse cx="453.920424" cy="330.000000" rx="14.474986" ry="13.857121" fill="white"/></g><g transform="rotate(285.395668 13.777919 99.832048)"><ellipse cx="13.777919" cy="99.832048" rx="14.019483" ry="14.690805" fill="white"/></g><g transform="rotate(104.856366 696.340663 585.211373)"><ellipse cx="696.340663" cy="585.211373" rx="13.572711" ry="13.687124" fill="white"/></g><g transform="rotate(160.895001 383.314679 582.465570)"><ellipse cx="383.314679" cy="582.465570" rx="16.798823" ry="16.078685" fill="white"/></g><g transform="rotate(54.143333 512.244819 97.487373)"><ellipse cx="512.244819" cy="97.487373" rx="12.903738" ry="13.496733" fill="white"/></g><g transform="rotate(244.925388 236.268694 422.387621)"><ellipse cx="236.268694" cy="422.387621" rx="13.334920" ry="14.761174" fill="white"/></g><g transform="rotate(183.770025 666.577928 144.707514)"><ellipse cx="666.577928" cy="144.707514" rx="12.612477" ry="13.480666" fill="white"/></g><g transform="rotate(70.984963 448.729425 148.664174)"><ellipse cx="448.729425" cy="148.664174" rx="15.334063" ry="13.040904" fill="white"/></g><g transform="rotate(310.321722 382.671243 188.287563)"><ellipse cx="382.671243" cy="188.287563" rx="16.982043" ry="15.659288" fill="white"/></g><g transform="rotate(247.184084 221.401405 119.874960)"><ellipse cx="221.401405" cy="119.874960" rx="15.765021" ry="15.733473" fill="white"/></g><g transform="rotate(354.197783 231.317298 330.000000)"><ellipse cx="231.317298" cy="330.000000" rx="14.333103" ry="16.524806" fill="white"/></g><g transform="rotate(84.150239 132.492424 117.754719)"><ellipse cx="132.492424" cy="117.754719" rx="14.950689" ry="13.802326" fill="white"/></g><g transform="rotate(168.235389 587.743386 427.819617)"><ellipse cx="587.743386" cy="427.819617" rx="14.921306" ry="14.067826" fill="white"/></g><g transform="rotate(282.173913 701.048723 270.000000)"><ellipse cx="701.048723" cy="270.000000" rx="15.362271" ry="17.683852" fill="white"/></g><g transform="rotate(85.761931 63.746506 585.601130)"><ellipse cx="63.746506" cy="585.601130" rx="14.107222" ry="14.166366" fill="white"/></g><g transform="rotate(151.681987 263.597755 457.767634)"><ellipse cx="263.597755" cy="457.767634" rx="12.270282" ry="11.630622" fill="white"/></g><g transform="rotate(61.958224 206.382437 389.136146)"><ellipse cx="206.382437" cy="389.136146" rx="14.678802" ry="14.152976" fill="white"/></g><g transform="rotate(271.633537 399.972732 270.000000)"><ellipse cx="399.972732" cy="270.000000" rx="14.648974" ry="15.082849" fill="white"/></g><g transform="rotate(315.995125 232.370386 541.496954)"><ellipse cx="232.370386" cy="541.496954" rx="14.342531" ry="15.507549" fill="white"/></g><g transform="rotate(260.688411 737.740802 34.826971)"><ellipse cx="737.740802" cy="34.826971" rx="12.070948" ry="12.862167" fill="white"/></g><g transform="rotate(124.476230 12.719588 12.719588)"><ellipse cx="12.719588" cy="12.719588" rx="13.044826" ry="13.499832" fill="white"/></g><g transform="rotate(157.241556 187.891947 545.993484)"><ellipse cx="187.891947" cy="545.993484" rx="16.696289" ry="16.925156" fill="white"/></g><g transform="rotate(329.480576 488.946403 270.000000)"><ellipse cx="488.946403" cy="270.000000" rx="15.098363" ry="16.041305" fill="white"/></g><g transform="rotate(236.764870 47.863044 399.679029)"><ellipse cx="47.863044" cy="399.679029" rx="16.406480" ry="17.727221" fill="white"/></g><g transform="rotate(259.559727 154.574417 156.196307)"><ellipse cx="154.574417" cy="156.196307" rx="13.651958" ry="16.301319" fill="white"/></g><g transform="rotate(8.538881 713.541557 468.819952)"><ellipse cx="713.541557" cy="468.819952" rx="16.907884" ry="18.035220" fill="white"/></g><g transform="rotate(221.909663 638.354569 579.527918)"><ellipse cx="638.354569" cy="579.527918" rx="13.068201" ry="13.418097" fill="white"/></g><g transform="rotate(315.312283 418.727473 376.285889)"><ellipse cx="418.727473" cy="376.285889" rx="14.206244" ry="15.908445" fill="white"/></g><g transform="rotate(223.999242 102.039629 149.293366)"><ellipse cx="102.039629" cy="149.293366" rx="12.832916" ry="14.152097" fill="white"/></g><g transform="rotate(230.065875 498.400671 330.000000)"><ellipse cx="498.400671" cy="330.000000" rx="14.516219" ry="13.574775" fill="white"/></g><g transform="rotate(296.708935 692.781998 108.536745)"><ellipse cx="692.781998" cy="108.536745" rx="14.167667" ry="12.630170" fill="white"/></g><g transform="rotate(86.992001 344.976021 165.986221)"><ellipse cx="344.976021" cy="165.986221" rx="16.847766" ry="16.499943" fill="white"/></g><g transform="rotate(154.259658 211.076663 14.071228)"><ellipse cx="211.076663" cy="14.071228" rx="14.425352" ry="13.483170" fill="white"/></g><g transform="rotate(341.796122 693.475271 330.000000)"><ellipse cx="693.475271" cy="330.000000" rx="17.168795" ry="16.096986" fill="white"/></g><g transform="rotate(253.276454 545.539202 442.344198)"><ellipse cx="545.539202" cy="442.344198" rx="15.440398" ry="13.867702" fill="white"/></g><g transform="rotate(294.194447 110.922826 231.165310)"><ellipse cx="110.922826" cy="231.165310" rx="17.709006" ry="16.245237" fill="white"/></g><g transform="rotate(92.426758 779.738741 50.026729)"><ellipse cx="779.738741" cy="50.026729" rx="17.645915" ry="17.334289" fill="white"/></g><g transform="rotate(187.517264 767.190900 216.631626)"><ellipse cx="767.190900" cy="216.631626" rx="13.945013" ry="12.847806" fill="white"/></g><g transform="rotate(214.043303 115.576875 503.834086)"><ellipse cx="115.576875" cy="503.834086" rx="13.356406" ry="12.680322" fill="white"/></g><g transform="rotate(91.691682 576.775391 58.333557)"><ellipse cx="576.775391" cy="58.333557" rx="17.938101" ry="17.409192" fill="white"/></g><g transform="rotate(81.540209 53.278983 251.244445)"><ellipse cx="53.278983" cy="251.244445" rx="15.059510" ry="16.373808" fill="white"/></g><g transform="rotate(252.256746 209.693662 458.682834)"><ellipse cx="209.693662" cy="458.682834" rx="15.530168" ry="17.363780" fill="white"/></g><g transform="rotate(204.437713 695.020163 21.901473)"><ellipse cx="695.020163" cy="21.901473" rx="14.061378" ry="13.290941" fill="white"/></g><g transform="rotate(296.528212 784.092785 473.029098)"><ellipse cx="784.092785" cy="473.029098" rx="14.477239" ry="15.755773" fill="white"/></g><g transform="rotate(146.575347 147.073493 456.475617)"><ellipse cx="147.073493" cy="456.475617" rx="13.019133" ry="13.090647" fill="white"/></g><g transform="rotate(166.135497 204.571132 503.310611)"><ellipse cx="204.571132" cy="503.310611" rx="19.146029" ry="18.918626" fill="white"/></g><g transform="rotate(261.282280 15.830704 430.806988)"><ellipse cx="15.830704" cy="430.806988" rx="14.543085" ry="17.378423" fill="white"/></g><g transform="rotate(103.618105 533.543013 270.000000)"><ellipse cx="533.543013" cy="270.000000" rx="17.613591" ry="16.226324" fill="white"/></g><g transform="rotate(256.972696 409.432847 330.000000)"><ellipse cx="409.432847" cy="330.000000" rx="17.544163" ry="16.187026" fill="white"/></g><g transform="rotate(75.901292 444.417183 270.000000)"><ellipse cx="444.417183" cy="270.000000" rx="15.814755" ry="13.369923" fill="white"/></g><g transform="rotate(217.365322 381.084723 112.766921)"><ellipse cx="381.084723" cy="112.766921" rx="13.664762" ry="12.210224" fill="white"/></g><g transform="rotate(328.843891 585.473940 518.751475)"><ellipse cx="585.473940" cy="518.751475" rx="16.167084" ry="16.293201" fill="white"/></g><g transform="rotate(175.458601 394.304768 458.745646)"><ellipse cx="394.304768" cy="458.745646" rx="15.431475" ry="16.460615" fill="white"/></g><g transform="rotate(255.183002 741.021400 586.087458)"><ellipse cx="741.021400" cy="586.087458" rx="14.908871" ry="14.278115" fill="white"/></g><g transform="rotate(13.726005 296.274971 488.717722)"><ellipse cx="296.274971" cy="488.717722" rx="14.133440" ry="14.819039" fill="white"/></g><g transform="rotate(294.076193 619.664148 69.166435)"><ellipse cx="619.664148" cy="69.166435" rx="17.097035" ry="16.014353" fill="white"/></g><g transform="rotate(135.041809 493.967652 532.905188)"><ellipse cx="493.967652" cy="532.905188" rx="12.847196" ry="11.762694" fill="white"/></g><g transform="rotate(127.356802 306.494453 445.188866)"><ellipse cx="306.494453" cy="445.188866" rx="15.041161" ry="17.035880" fill="white"/></g><g transform="rotate(344.114181 343.185118 91.354976)"><ellipse cx="343.185118" cy="91.354976" rx="13.485643" ry="13.218362" fill="white"/></g><g transform="rotate(92.435104 96.875028 91.196176)"><ellipse cx="96.875028" cy="91.196176" rx="14.493157" ry="14.411418" fill="white"/></g><g transform="rotate(114.041588 725.602031 232.831061)"><ellipse cx="725.602031" cy="232.831061" rx="16.165296" ry="15.707166" fill="white"/></g><g transform="rotate(132.962137 511.604204 411.472073)"><ellipse cx="511.604204" cy="411.472073" rx="15.093610" ry="17.520971" fill="white"/></g><g transform="rotate(354.672754 160.047496 499.266311)"><ellipse cx="160.047496" cy="499.266311" rx="12.447528" ry="12.866417" fill="white"/></g><g transform="rotate(142.726571 556.675801 98.254129)"><ellipse cx="556.675801" cy="98.254129" rx="15.259457" ry="15.580216" fill="white"/></g><g transform="rotate(19.641622 485.318258 375.292426)"><ellipse cx="485.318258" cy="375.292426" rx="11.868586" ry="11.205329" fill="white"/></g><g transform="rotate(191.206754 676.359027 230.062265)"><ellipse cx="676.359027" cy="230.062265" rx="14.480720" ry="15.758163" fill="white"/></g><g transform="rotate(105.209357 444.295454 60.902051)"><ellipse cx="444.295454" cy="60.902051" rx="16.150236" ry="15.801834" fill="white"/></g></svg>