<svg width="800" height="600" xmlns="http://www.w3.org/2000/svg"><rect width="100%" height="100%" fill="black"/><g transform="rotate(336.179288 782.571461 444.785898)"><ellipse cx="782.571461" cy="444.785898" rx="17.795381" ry="18.973406" fill="white"/></g><g transform="rotate(349.099544 19.780071 101.523725)"><ellipse cx="19.780071" cy="101.523725" rx="15.012699" ry="14.857961" fill="white"/></g><g transform="rotate(245.484526 394.832707 330.000000)"><ellipse cx="394.832707" cy="330.000000" rx="15.165386" ry="14.718089" fill="white"/></g><g transform="rotate(27.048353 225.357083 270.000000)"><ellipse cx="225.357083" cy="270.000000" rx="15.920153" ry="15.696547" fill="white"/></g><g transform="rotate(139.326075 81.006651 13.892027)"><ellipse cx="81.006651" cy="13.892027" rx="13.088941" ry="14.161608" fill="white"/></g><g transform="rotate(239.818696 437.154419 15.323103)"><ellipse cx="437.154419" cy="15.323103" rx="15.773075" ry="16.070790" fill="white"/></g><g transform="rotate(180.151183 318.128765 584.848803)"><ellipse cx="318.128765" cy="584.848803" rx="14.760965" ry="16.555989" fill="white"/></g><g transform="rotate(233.643261 567.505527 330.000000)"><ellipse cx="567.505527" cy="330.000000" rx="13.069423" ry="13.950085" fill="white"/></g><g transform="rotate(342.995499 104.253480 506.252726)"><ellipse cx="104.253480" cy="506.252726" rx="13.790443" ry="14.347168" fill="white"/></g><g transform="rotate(231.558907 784.993153 15.006847)"><ellipse cx="784.993153" cy="15.006847" rx="15.102507" ry="13.741195" fill="white"/></g><g transform="rotate(258.829255 272.313299 417.175283)"><ellipse cx="272.313299" cy="417.175283" rx="15.101494" ry="15.212202" fill="white"/></g><g transform="rotate(325.109177 60.777615 505.630900)"><ellipse cx="60.777615" cy="505.630900" rx="12.098515" ry="12.536921" fill="white"/></g><g transform="rotate(295.825541 61.086867 60.325279)"><ellipse cx="61.086867" cy="60.325279" rx="14.010844" ry="12.749889" fill="white"/></g><g transform="rotate(93.287617 315.204343 500.595899)"><ellipse cx="315.204343" cy="500.595899" rx="16.406131" ry="14.355174" fill="white"/></g><g transform="rotate(215.677848 398.659739 553.955698)"><ellipse cx="398.659739" cy="553.955698" rx="17.427340" ry="15.386459" fill="white"/></g><g transform="rotate(79.983547 522.007774 526.042436)"><ellipse cx="522.007774" cy="526.042436" rx="15.055201" ry="13.862665" fill="white"/></g><g transform="rotate(325.479345 744.201858 81.457398)"><ellipse cx="744.201858" cy="81.457398" rx="16.020671" ry="16.332057" fill="white"/></g><g transform="rotate(290.302795 545.110234 118.723026)"><ellipse cx="545.110234" cy="118.723026" rx="17.122675" ry="18.202592" fill="white"/></g><g transform="rotate(149.635795 787.569909 191.289165)"><ellipse cx="787.569909" cy="191.289165" rx="12.191873" ry="13.357793" fill="white"/></g><g transform="rotate(306.887068 380.638176 228.719651)"><ellipse cx="380.638176" cy="228.719651" rx="14.280036" ry="14.818259" fill="white"/></g><g transform="rotate(277.047075 524.380772 330.000000)"><ellipse cx="524.380772" cy="330.000000" rx="15.678709" ry="14.994113" fill="white"/></g><g transform="rotate(355.703716 111.711929 135.518952)"><ellipse cx="111.711929" cy="135.518952" rx="13.868598" ry="14.083596" fill="white"/></g><g transform="rotate(260.565482 143.864628 487.887965)"><ellipse cx="143.864628" cy="487.887965" rx="14.531837" ry="14.489812" fill="white"/></g><g transform="rotate(264.923564 703.214582 14.538536)"><ellipse cx="703.214582" cy="14.538536" rx="13.586114" ry="14.899141" fill="white"/></g><g transform="rotate(96.392795 81.661721 544.863206)"><ellipse cx="81.661721" cy="544.863206" rx="12.143726" ry="11.840980" fill="white"/></g><g transform="rotate(118.212499 271.156353 506.499233)"><ellipse cx="271.156353" cy="506.499233" rx="14.558483" ry="14.392463" fill="white"/></g><g transform="rotate(158.270229 361.411917 457.998021)"><ellipse cx="361.411917" cy="457.998021" rx="12.458845" ry="12.914591" fill="white"/></g><g transform="rotate(208.970450 723.357170 231.268029)"><ellipse cx="723.357170" cy="231.268029" rx="16.149254" ry="15.476610" fill="white"/></g><g transform="rotate(164.521030 193.889787 61.391188)"><ellipse cx="193.889787" cy="61.391188" rx="14.512046" ry="13.762323" fill="white"/></g><g transform="rotate(58.451066 126.193960 544.597345)"><ellipse cx="126.193960" cy="544.597345" rx="14.948002" ry="12.746438" fill="white"/></g><g transform="rotate(327.777391 228.776366 584.514582)"><ellipse cx="228.776366" cy="584.514582" rx="14.909613" ry="14.207952" fill="white"/></g><g transform="rotate(246.929028 336.043346 227.762379)"><ellipse cx="336.043346" cy="227.762379" rx="11.882875" ry="12.818962" fill="white"/></g><g transform="rotate(235.952277 15.515894 150.961340)"><ellipse cx="15.515894" cy="150.961340" rx="15.405004" ry="14.729837" fill="white"/></g><g transform="rotate(294.252790 339.647160 543.195004)"><ellipse cx="339.647160" cy="543.195004" rx="11.288686" ry="12.820460" fill="white"/></g><g transform="rotate(221.028589 80.031320 167.050808)"><ellipse cx="80.031320" cy="167.050808" rx="16.332797" ry="15.295789" fill="white"/></g><g transform="rotate(325.096189 221.019477 330.000000)"><ellipse cx="221.019477" cy="330.000000" rx="12.407623" ry="12.993850" fill="white"/></g><g transform="rotate(240.041842 244.109592 146.501971)"><ellipse cx="244.109592" cy="146.501971" rx="17.422607" ry="15.233203" fill="white"/></g><g transform="rotate(12.304610 364.951541 97.190052)"><ellipse cx="364.951541" cy="97.190052" rx="15.887702" ry="16.141164" fill="white"/></g><g transform="rotate(347.689612 170.307955 15.071252)"><ellipse cx="170.307955" cy="15.071252" rx="15.306240" ry="16.509247" fill="white"/></g><g transform="rotate(300.342500 519.450946 154.960895)"><ellipse cx="519.450946" cy="154.960895" rx="14.467852" ry="12.323374" fill="white"/></g><g transform="rotate(359.200855 361.195782 411.805897)"><ellipse cx="361.195782" cy="411.805897" rx="14.452097" ry="15.857189" fill="white"/></g><g transform="rotate(276.701004 292.500234 217.888979)"><ellipse cx="292.500234" cy="217.888979" rx="12.225888" ry="11.369582" fill="white"/></g><g transform="rotate(112.012675 233.706379 225.869600)"><ellipse cx="233.706379" cy="225.869600" rx="15.500481" ry="15.344893" fill="white"/></g><g transform="rotate(216.006226 438.048843 330.000000)"><ellipse cx="438.048843" cy="330.000000" rx="15.180038" ry="13.723893" fill="white"/></g><g transform="rotate(338.194647 481.800381 14.550111)"><ellipse cx="481.800381" cy="14.550111" rx="14.162694" ry="14.959685" fill="white"/></g><g transform="rotate(204.851338 653.694204 330.000000)"><ellipse cx="653.694204" cy="330.000000" rx="16.482340" ry="16.663664" fill="white"/></g><g transform="rotate(262.082111 326.685936 58.350405)"><ellipse cx="326.685936" cy="58.350405" rx="14.589729" ry="14.553917" fill="white"/></g><g transform="rotate(12.314459 480.698191 497.012719)"><ellipse cx="480.698191" cy="497.012719" rx="14.254553" ry="14.147716" fill="white"/></g><g transform="rotate(330.369715 205.349020 371.088261)"><ellipse cx="205.349020" cy="371.088261" rx="18.122321" ry="17.201068" fill="white"/></g><g transform="rotate(271.127901 705.548105 147.471329)"><ellipse cx="705.548105" cy="147.471329" rx="12.095059" ry="13.715938" fill="white"/></g><g transform="rotate(325.012943 339.223993 372.880348)"><ellipse cx="339.223993" cy="372.880348" rx="18.785491" ry="17.737719" fill="white"/></g><g transform="rotate(327.494112 666.908666 125.153227)"><ellipse cx="666.908666" cy="125.153227" rx="13.135122" ry="13.504792" fill="white"/></g><g transform="rotate(123.464481 448.254862 189.802785)"><ellipse cx="448.254862" cy="189.802785" rx="13.890453" ry="12.574242" fill="white"/></g><g transform="rotate(188.983588 383.887181 373.304915)"><ellipse cx="383.887181" cy="373.304915" rx="11.888150" ry="11.884159" fill="white"/></g><g transform="rotate(70.463973 399.553839 434.679906)"><ellipse cx="399.553839" cy="434.679906" rx="15.561444" ry="16.876576" fill="white"/></g><g transform="rotate(57.608367 356.848976 270.000000)"><ellipse cx="356.848976" cy="270.000000" rx="13.686790" ry="15.328120" fill="white"/></g><g transform="rotate(328.305349 273.398166 586.008500)"><ellipse cx="273.398166" cy="586.008500" rx="15.143121" ry="13.189487" fill="white"/></g><g transform="rotate(32.973699 392.672511 12.131648)"><ellipse cx="392.672511" cy="12.131648" rx="12.162443" ry="12.885190" fill="white"/></g><g transform="rotate(45.558888 58.822605 587.072213)"><ellipse cx="58.822605" cy="587.072213" rx="12.277885" ry="14.029688" fill="white"/></g><g transform="rotate(257.390806 739.175608 585.822041)"><ellipse cx="739.175608" cy="585.822041" rx="13.554469" ry="12.917432" fill="white"/></g><g transform="rotate(169.664042 655.990378 494.752342)"><ellipse cx="655.990378" cy="494.752342" rx="18.386575" ry="15.654730" fill="white"/></g><g transform="rotate(293.044956 214.874803 16.355852)"><ellipse cx="214.874803" cy="16.355852" rx="16.902969" ry="16.642829" fill="white"/></g><g transform="rotate(86.661317 711.962341 485.356626)"><ellipse cx="711.962341" cy="485.356626" rx="13.636756" ry="13.306923" fill="white"/></g><g transform="rotate(256.066699 631.225862 369.818357)"><ellipse cx="631.225862" cy="369.818357" rx="16.828356" ry="14.919363" fill="white"/></g><g transform="rotate(134.940701 621.042038 413.360765)"><ellipse cx="621.042038" cy="413.360765" rx="14.929859" ry="15.810221" fill="white"/></g><g transform="rotate(202.039484 14.090623 585.909377)"><ellipse cx="14.090623" cy="585.909377" rx="13.059224" ry="12.856245" fill="white"/></g><g transform="rotate(51.562719 429.419712 149.301108)"><ellipse cx="429.419712" cy="149.301108" rx="16.723343" ry="14.973933" fill="white"/></g><g transform="rotate(93.554700 576.699184 418.825334)"><ellipse cx="576.699184" cy="418.825334" rx="13.975787" ry="15.444699" fill="white"/></g><g transform="rotate(237.480646 545.542157 74.123358)"><ellipse cx="545.542157" cy="74.123358" rx="15.780409" ry="17.959361" fill="white"/></g><g transform="rotate(237.149648 162.875654 448.259318)"><ellipse cx="162.875654" cy="448.259318" rx="17.659121" ry="18.025738" fill="white"/></g><g transform="rotate(5.046224 294.582526 372.492782)"><ellipse cx="294.582526" cy="372.492782" rx="14.502686" ry="14.858706" fill="white"/></g><g transform="rotate(85.381820 612.828675 574.939370)"><ellipse cx="612.828675" cy="574.939370" rx="17.971736" ry="17.642139" fill="white"/></g><g transform="rotate(227.579768 59.101982 206.555479)"><ellipse cx="59.101982" cy="206.555479" rx="18.280724" ry="18.024595" fill="white"/></g><g transform="rotate(133.744033 144.279003 225.448266)"><ellipse cx="144.279003" cy="225.448266" rx="13.152892" ry="14.747320" fill="white"/></g><g transform="rotate(343.345436 362.833703 585.301101)"><ellipse cx="362.833703" cy="585.301101" rx="14.685849" ry="15.909523" fill="white"/></g><g transform="rotate(238.185325 340.771894 134.762266)"><ellipse cx="340.771894" cy="134.762266" rx="17.085105" ry="16.298966" fill="white"/></g><g transform="rotate(347.577966 697.850304 568.735531)"><ellipse cx="697.850304" cy="568.735531" rx="13.557054" ry="11.395241" fill="white"/></g><g transform="rotate(191.768211 583.235361 142.677049)"><ellipse cx="583.235361" cy="142.677049" rx="12.924179" ry="13.516201" fill="white"/></g><g transform="rotate(359.543880 564.601060 14.255672)"><ellipse cx="564.601060" cy="14.255672" rx="14.850163" ry="14.560960" fill="white"/></g><g transform="rotate(40.379423 15.741063 195.617077)"><ellipse cx="15.741063" cy="195.617077" rx="14.563064" ry="14.306039" fill="white"/></g><g transform="rotate(341.767595 739.818662 330.000000)"><ellipse cx="739.818662" cy="330.000000" rx="13.951263" ry="13.698940" fill="white"/></g><g transform="rotate(263.475751 313.132891 270.000000)"><ellipse cx="313.132891" cy="270.000000" rx="15.275530" ry="16.339418" fill="white"/></g><g transform="rotate(89.539732 443.963805 270.000000)"><ellipse cx="443.963805" cy="270.000000" rx="13.555835" ry="13.177016" fill="white"/></g><g transform="rotate(176.677649 481.229933 330.000000)"><ellipse cx="481.229933" cy="330.000000" rx="17.429451" ry="16.450826" fill="white"/></g><g transform="rotate(203.878567 351.562334 330.000000)"><ellipse cx="351.562334" cy="330.000000" rx="14.199229" ry="14.938463" fill="white"/></g><g transform="rotate(25.121606 482.828667 583.570905)"><ellipse cx="482.828667" cy="583.570905" rx="15.414724" ry="17.198401" fill="white"/></g><g transform="rotate(131.255308 782.941575 103.143293)"><ellipse cx="782.941575" cy="103.143293" rx="15.748511" ry="17.493146" fill="white"/></g><g transform="rotate(199.508977 148.838271 582.603118)"><ellipse cx="148.838271" cy="582.603118" rx="17.099036" ry="19.021731" fill="white"/></g><g transform="rotate(20.015875 570.016598 587.863600)"><ellipse cx="570.016598" cy="587.863600" rx="13.188110" ry="13.104955" fill="white"/></g><g transform="rotate(223.535899 665.727458 413.061824)"><ellipse cx="665.727458" cy="413.061824" rx="12.516227" ry="12.804957" fill="white"/></g><g transform="rotate(348.492138 62.062878 330.000000)"><ellipse cx="62.062878" cy="330.000000" rx="18.354005" ry="17.088171" fill="white"/></g><g transform="rotate(319.948676 125.662320 15.258327)"><ellipse cx="125.662320" cy="15.258327" rx="14.119391" ry="15.046564" fill="white"/></g><g transform="rotate(232.163077 459.886868 53.689483)"><ellipse cx="459.886868" cy="53.689483" rx="12.853571" ry="14.785666" fill="white"/></g><g transform="rotate(186.503061 611.120317 17.757933)"><ellipse cx="611.120317" cy="17.757933" rx="17.788782" ry="18.286733" fill="white"/></g><g transform="rotate(122.039566 787.340264 270.000000)"><ellipse cx="787.340264" cy="270.000000" rx="12.207461" ry="12.420830" fill="white"/></g><g transform="rotate(18.974835 155.832087 142.742157)"><ellipse cx="155.832087" cy="142.742157" rx="14.439213" ry="15.483785" fill="white"/></g><g transform="rotate(178.519816 782.270230 58.911137)"><ellipse cx="782.270230" cy="58.911137" rx="18.716758" ry="18.631971" fill="white"/></g><g transform="rotate(42.303081 268.167465 108.833930)"><ellipse cx="268.167465" cy="108.833930" rx="18.429916" ry="17.346455" fill="white"/></g><g transform="rotate(32.046270 250.043504 371.264864)"><ellipse cx="250.043504" cy="371.264864" rx="19.442242" ry="17.290562" fill="white"/></g><g transform="rotate(244.353306 359.643759 503.244353)"><ellipse cx="359.643759" cy="503.244353" rx="13.031486" ry="14.348309" fill="white"/></g><g transform="rotate(113.244986 13.691870 418.847435)"><ellipse cx="13.691870" cy="418.847435" rx="14.649466" ry="13.367991" fill="white"/></g><g transform="rotate(99.042117 782.659570 535.995289)"><ellipse cx="782.659570" cy="535.995289" rx="16.453597" ry="17.631220" fill="white"/></g><g transform="rotate(36.928596 666.199722 169.515274)"><ellipse cx="666.199722" cy="169.515274" rx="11.525969" ry="11.444274" fill="white"/></g><g transform="rotate(137.261267 362.576058 173.674617)"><ellipse cx="362.576058" cy="173.674617" rx="15.984628" ry="15.135338" fill="white"/></g><g transform="rotate(93.262404 746.164289 170.863471)"><ellipse cx="746.164289" cy="170.863471" rx="15.138946" ry="17.136472" fill="white"/></g><g transform="rotate(165.292521 312.069809 100.563421)"><ellipse cx="312.069809" cy="100.563421" rx="15.270378" ry="15.135213" fill="white"/></g><g transform="rotate(169.181724 176.916447 330.000000)"><ellipse cx="176.916447" cy="330.000000" rx="16.059049" ry="15.532349" fill="white"/></g><g transform="rotate(51.932772 295.153365 546.545045)"><ellipse cx="295.153365" cy="546.545045" rx="16.135177" ry="15.311581" fill="white"/></g><g transform="rotate(53.368559 165.916452 186.310203)"><ellipse cx="165.916452" cy="186.310203" rx="15.183655" ry="17.579369" fill="white"/></g><g transform="rotate(139.224580 400.455393 270.000000)"><ellipse cx="400.455393" cy="270.000000" rx="13.869113" ry="14.118992" fill="white"/></g><g transform="rotate(153.628510 15.116248 240.248378)"><ellipse cx="15.116248" cy="240.248378" rx="14.670532" ry="14.733115" fill="white"/></g><g transform="rotate(2.938157 573.506164 270.000000)"><ellipse cx="573.506164" cy="270.000000" rx="12.483680" ry="13.988782" fill="white"/></g><g transform="rotate(210.829245 514.202353 228.991547)"><ellipse cx="514.202353" cy="228.991547" rx="19.354825" ry="18.592436" fill="white"/></g><g transform="rotate(348.228835 282.393679 63.579170)"><ellipse cx="282.393679" cy="63.579170" rx="15.334796" ry="15.058686" fill="white"/></g><g transform="rotate(20.342943 120.713881 186.010252)"><ellipse cx="120.713881" cy="186.010252" rx="15.220570" ry="14.896673" fill="white"/></g><g transform="rotate(176.324524 784.142753 147.270635)"><ellipse cx="784.142753" cy="147.270635" rx="14.224204" ry="15.311268" fill="white"/></g><g transform="rotate(47.499919 264.797912 330.000000)"><ellipse cx="264.797912" cy="330.000000" rx="16.388101" ry="18.331331" fill="white"/></g><g transform="rotate(212.707144 118.355338 449.901139)"><ellipse cx="118.355338" cy="449.901139" rx="15.182106" ry="15.523387" fill="white"/></g><g transform="rotate(38.796183 412.731782 99.023617)"><ellipse cx="412.731782" cy="99.023617" rx="15.603952" ry="18.013905" fill="white"/></g><g transform="rotate(116.274467 720.655794 370.390974)"><ellipse cx="720.655794" cy="370.390974" rx="16.020306" ry="15.786617" fill="white"/></g><g transform="rotate(201.440432 701.824270 270.000000)"><ellipse cx="701.824270" cy="270.000000" rx="14.677575" ry="14.336144" fill="white"/></g><g transform="rotate(269.312724 211.205241 525.347549)"><ellipse cx="211.205241" cy="525.347549" rx="12.782758" ry="14.352411" fill="white"/></g><g transform="rotate(21.903296 557.165147 178.908619)"><ellipse cx="557.165147" cy="178.908619" rx="13.727229" ry="13.822553" fill="white"/></g><g transform="rotate(311.367753 183.798905 409.472535)"><ellipse cx="183.798905" cy="409.472535" rx="12.892936" ry="14.120142" fill="white"/></g><g transform="rotate(89.109889 269.303174 270.000000)"><ellipse cx="269.303174" cy="270.000000" rx="12.285536" ry="12.420543" fill="white"/></g><g transform="rotate(175.593856 705.681521 103.224843)"><ellipse cx="705.681521" cy="103.224843" rx="19.337023" ry="19.286481" fill="white"/></g><g transform="rotate(212.729481 104.129112 583.221215)"><ellipse cx="104.129112" cy="583.221215" rx="17.707619" ry="16.007715" fill="white"/></g><g transform="rotate(180.743761 272.423648 461.852003)"><ellipse cx="272.423648" cy="461.852003" rx="15.839869" ry="15.021428" fill="white"/></g><g transform="rotate(93.358101 99.562134 225.600563)"><ellipse cx="99.562134" cy="225.600563" rx="14.774655" ry="14.654311" fill="white"/></g><g transform="rotate(145.047106 132.635384 330.000000)"><ellipse cx="132.635384" cy="330.000000" rx="16.701049" ry="16.713181" fill="white"/></g><g transform="rotate(321.256707 130.189178 94.824416)"><ellipse cx="130.189178" cy="94.824416" rx="15.769934" ry="15.919005" fill="white"/></g><g transform="rotate(335.014989 303.910074 19.906109)"><ellipse cx="303.910074" cy="19.906109" rx="18.047020" ry="18.210033" fill="white"/></g><g transform="rotate(235.454489 16.733416 56.913743)"><ellipse cx="16.733416" cy="56.913743" rx="15.732539" ry="16.181704" fill="white"/></g><g transform="rotate(96.993471 36.410047 16.794485)"><ellipse cx="36.410047" cy="16.794485" rx="16.408915" ry="16.496859" fill="white"/></g><g transform="rotate(4.466699 456.307263 109.011478)"><ellipse cx="456.307263" cy="109.011478" rx="18.534655" ry="18.813105" fill="white"/></g><g transform="rotate(324.947346 48.289383 270.000000)"><ellipse cx="48.289383" cy="270.000000" rx="18.657816" ry="18.965946" fill="white"/></g><g transform="rotate(316.838311 443.348200 472.496307)"><ellipse cx="443.348200" cy="472.496307" rx="15.141007" ry="14.254568" fill="white"/></g><g transform="rotate(181.472568 12.963823 374.304858)"><ellipse cx="12.963823" cy="374.304858" rx="12.497547" ry="14.186951" fill="white"/></g><g transform="rotate(132.122316 678.843223 229.953144)"><ellipse cx="678.843223" cy="229.953144" rx="17.149837" ry="16.640380" fill="white"/></g><g transform="rotate(31.327738 432.526046 519.386858)"><ellipse cx="432.526046" cy="519.386858" rx="15.224968" ry="13.719740" fill="white"/></g><g transform="rotate(221.978515 238.253600 57.249390)"><ellipse cx="238.253600" cy="57.249390" rx="15.448996" ry="14.689606" fill="white"/></g><g transform="rotate(170.085403 174.339140 101.567006)"><ellipse cx="174.339140" cy="101.567006" rx="16.380435" ry="15.091911" fill="white"/></g><g transform="rotate(323.236198 584.421544 98.111219)"><ellipse cx="584.421544" cy="98.111219" rx="16.615861" ry="17.120722" fill="white"/></g><g transform="rotate(284.383642 528.920982 570.225730)"><ellipse cx="528.920982" cy="570.225730" rx="15.740043" ry="15.005753" fill="white"/></g><g transform="rotate(183.748643 250.639958 545.944884)"><ellipse cx="250.639958" cy="545.944884" rx="16.706845" ry="15.675184" fill="white"/></g><g transform="rotate(332.180675 641.136974 206.196415)"><ellipse cx="641.136974" cy="206.196415" rx="16.055763" ry="15.085947" fill="white"/></g><g transform="rotate(21.191397 628.606357 102.585923)"><ellipse cx="628.606357" cy="102.585923" rx="18.665096" ry="15.560545" fill="white"/></g><g transform="rotate(316.365577 640.582011 538.104141)"><ellipse cx="640.582011" cy="538.104141" rx="13.044915" ry="13.102393" fill="white"/></g><g transform="rotate(304.418184 738.064654 449.049596)"><ellipse cx="738.064654" cy="449.049596" rx="19.176577" ry="17.740610" fill="white"/></g><g transform="rotate(63.563540 530.354885 374.577076)"><ellipse cx="530.354885" cy="374.577076" rx="18.854803" ry="16.596739" fill="white"/></g><g transform="rotate(199.999415 189.331369 564.266597)"><ellipse cx="189.331369" cy="564.266597" rx="15.326489" ry="14.843561" fill="white"/></g><g transform="rotate(39.499433 659.110923 270.000000)"><ellipse cx="659.110923" cy="270.000000" rx="11.569492" ry="12.510363" fill="white"/></g><g transform="rotate(188.505530 610.608251 330.000000)"><ellipse cx="610.608251" cy="330.000000" rx="15.958626" ry="16.221646" fill="white"/></g><g transform="rotate(300.896632 207.313608 447.727065)"><ellipse cx="207.313608" cy="447.727065" rx="15.026631" ry="16.217935" fill="white"/></g><g transform="rotate(237.957509 318.694619 181.680593)"><ellipse cx="318.694619" cy="181.680593" rx="17.419965" ry="16.952974" fill="white"/></g><g transform="rotate(305.003579 479.926193 374.687432)"><ellipse cx="479.926193" cy="374.687432" rx="13.512210" ry="12.145242" fill="white"/></g><g transform="rotate(73.936309 585.043381 53.726400)"><ellipse cx="585.043381" cy="53.726400" rx="16.066713" ry="18.457169" fill="white"/></g><g transform="rotate(67.866222 259.420229 17.920603)"><ellipse cx="259.420229" cy="17.920603" rx="19.627420" ry="17.250400" fill="white"/></g><g transform="rotate(61.464092 667.440072 80.613852)"><ellipse cx="667.440072" cy="80.613852" rx="15.104481" ry="15.873703" fill="white"/></g><g transform="rotate(126.194471 37.246529 547.915587)"><ellipse cx="37.246529" cy="547.915587" rx="16.924944" ry="17.883324" fill="white"/></g><g transform="rotate(228.175994 696.767028 330.000000)"><ellipse cx="696.767028" cy="330.000000" rx="11.842344" ry="12.504769" fill="white"/></g><g transform="rotate(351.473629 627.680417 147.131591)"><ellipse cx="627.680417" cy="147.131591" rx="13.422983" ry="13.999885" fill="white"/></g><g transform="rotate(359.350228 523.289606 31.027891)"><ellipse cx="523.289606" cy="31.027891" rx="13.956241" ry="12.774566" fill="white"/></g><g transform="rotate(151.044770 443.691090 427.823569)"><ellipse cx="443.691090" cy="427.823569" rx="14.690133" ry="15.258952" fill="white"/></g><g transform="rotate(9.434111 228.404808 409.336789)"><ellipse cx="228.404808" cy="409.336789" rx="15.935973" ry="16.209360" fill="white"/></g><g transform="rotate(253.115170 85.638545 97.636423)"><ellipse cx="85.638545" cy="97.636423" rx="12.252598" ry="12.298901" fill="white"/></g><g transform="rotate(102.137489 139.255136 410.511205)"><ellipse cx="139.255136" cy="410.511205" rx="15.762977" ry="16.785231" fill="white"/></g><g transform="rotate(168.130600 616.392441 270.000000)"><ellipse cx="616.392441" cy="270.000000" rx="11.776438" ry="11.514083" fill="white"/></g><g transform="rotate(93.074007 57.481913 376.448215)"><ellipse cx="57.481913" cy="376.448215" rx="16.773429" ry="15.030895" fill="white"/></g><g transform="rotate(10.430607 288.756752 148.523139)"><ellipse cx="288.756752" cy="148.523139" rx="16.773668" ry="18.904435" fill="white"/></g><g transform="rotate(272.358807 95.856255 401.248397)"><ellipse cx="95.856255" cy="401.248397" rx="18.584104" ry="18.995896" fill="white"/></g><g transform="rotate(241.290457 473.996705 150.031444)"><ellipse cx="473.996705" cy="150.031444" rx="12.427589" ry="13.400857" fill="white"/></g><g transform="rotate(103.602004 629.349915 58.083580)"><ellipse cx="629.349915" cy="58.083580" rx="13.997064" ry="15.738248" fill="white"/></g><g transform="rotate(66.252617 97.503558 356.883852)"><ellipse cx="97.503558" cy="356.883852" rx="15.722741" ry="15.557086" fill="white"/></g><g transform="rotate(66.228632 601.649601 183.357196)"><ellipse cx="601.649601" cy="183.357196" rx="16.316789" ry="16.427456" fill="white"/></g><g transform="rotate(131.927879 210.390390 181.483672)"><ellipse cx="210.390390" cy="181.483672" rx="14.598115" ry="14.584174" fill="white"/></g><g transform="rotate(70.921296 558.261060 223.532186)"><ellipse cx="558.261060" cy="223.532186" rx="11.910005" ry="12.414836" fill="white"/></g><g transform="rotate(314.221580 137.086026 270.000000)"><ellipse cx="137.086026" cy="270.000000" rx="16.007563" ry="15.767185" fill="white"/></g><g transform="rotate(102.363844 105.287818 55.027083)"><ellipse cx="105.287818" cy="55.027083" rx="16.880195" ry="16.603220" fill="white"/></g><g transform="rotate(183.131679 744.566712 34.133397)"><ellipse cx="744.566712" cy="34.133397" rx="15.011492" ry="14.964416" fill="white"/></g><g transform="rotate(341.532807 689.020674 524.896961)"><ellipse cx="689.020674" cy="524.896961" rx="14.622969" ry="14.361798" fill="white"/></g><g transform="rotate(91.061351 774.868029 489.073943)"><ellipse cx="774.868029" cy="489.073943" rx="15.132657" ry="14.814760" fill="white"/></g><g transform="rotate(173.053511 316.555671 411.350637)"><ellipse cx="316.555671" cy="411.350637" rx="14.930460" ry="14.605953" fill="white"/></g><g transform="rotate(147.171260 17.531180 330.000000)"><ellipse cx="17.531180" cy="330.000000" rx="15.974235" ry="16.210090" fill="white"/></g><g transform="rotate(312.338903 589.090168 537.039733)"><ellipse cx="589.090168" cy="537.039733" rx="16.911212" ry="17.221818" fill="white"/></g><g transform="rotate(216.195526 767.538541 230.576084)"><ellipse cx="767.538541" cy="230.576084" rx="15.715253" ry="16.480357" fill="white"/></g><g transform="rotate(154.193781 15.377329 463.419218)"><ellipse cx="15.377329" cy="463.419218" rx="16.872392" ry="14.932745" fill="white"/></g><g transform="rotate(158.532041 501.263972 69.836959)"><ellipse cx="501.263972" cy="69.836959" rx="16.819311" ry="15.657782" fill="white"/></g><g transform="rotate(170.704071 611.414127 498.291483)"><ellipse cx="611.414127" cy="498.291483" rx="17.509577" ry="16.635572" fill="white"/></g><g transform="rotate(182.752704 258.635375 188.754521)"><ellipse cx="258.635375" cy="188.754521" rx="15.819721" ry="17.394648" fill="white"/></g><g transform="rotate(35.090615 704.630449 191.602018)"><ellipse cx="704.630449" cy="191.602018" rx="12.069672" ry="13.719357" fill="white"/></g><g transform="rotate(144.757821 54.943332 130.047720)"><ellipse cx="54.943332" cy="130.047720" rx="15.122622" ry="13.693398" fill="white"/></g><g transform="rotate(281.798886 744.731384 126.164397)"><ellipse cx="744.731384" cy="126.164397" rx="12.155417" ry="11.416553" fill="white"/></g><g transform="rotate(305.703803 17.625315 507.968548)"><ellipse cx="17.625315" cy="507.968548" rx="16.509408" ry="19.186062" fill="white"/></g><g transform="rotate(228.981627 492.683612 190.404350)"><ellipse cx="492.683612" cy="190.404350" rx="17.655650" ry="15.966111" fill="white"/></g><g transform="rotate(344.373295 224.395301 99.763037)"><ellipse cx="224.395301" cy="99.763037" rx="15.164444" ry="14.646187" fill="white"/></g><g transform="rotate(306.155860 675.941991 369.545578)"><ellipse cx="675.941991" cy="369.545578" rx="16.148715" ry="18.013559" fill="white"/></g><g transform="rotate(154.803956 92.753295 270.000000)"><ellipse cx="92.753295" cy="270.000000" rx="13.796413" ry="12.711470" fill="white"/></g><g transform="rotate(42.418916 741.099464 519.480062)"><ellipse cx="741.099464" cy="519.480062" rx="14.851298" ry="16.556070" fill="white"/></g><g transform="rotate(55.665410 500.704858 114.381855)"><ellipse cx="500.704858" cy="114.381855" rx="14.332716" ry="13.832781" fill="white"/></g><g transform="rotate(285.432369 656.324209 585.329927)"><ellipse cx="656.324209" cy="585.329927" rx="15.862445" ry="15.744582" fill="white"/></g><g transform="rotate(101.952299 469.714236 228.971269)"><ellipse cx="469.714236" cy="228.971269" rx="17.252244" ry="16.991018" fill="white"/></g><g transform="rotate(205.421236 401.291087 487.402439)"><ellipse cx="401.291087" cy="487.402439" rx="12.060830" ry="12.301285" fill="white"/></g><g transform="rotate(273.278341 200.273046 137.936567)"><ellipse cx="200.273046" cy="137.936567" rx="16.081076" ry="14.555128" fill="white"/></g><g transform="rotate(113.514666 348.139651 14.641475)"><ellipse cx="348.139651" cy="14.641475" rx="14.939335" ry="14.599667" fill="white"/></g><g transform="rotate(8.909670 487.316336 270.000000)"><ellipse cx="487.316336" cy="270.000000" rx="15.759153" ry="17.007076" fill="white"/></g><g transform="rotate(170.914459 443.226017 562.801506)"><ellipse cx="443.226017" cy="562.801506" rx="16.975152" ry="16.491555" fill="white"/></g><g transform="rotate(304.904114 532.054755 420.363338)"><ellipse cx="532.054755" cy="420.363338" rx="14.349711" ry="16.647982" fill="white"/></g><g transform="rotate(170.729527 316.749076 455.975286)"><ellipse cx="316.749076" cy="455.975286" rx="16.939374" ry="16.144158" fill="white"/></g><g transform="rotate(189.468221 706.091663 58.682424)"><ellipse cx="706.091663" cy="58.682424" rx="15.038885" ry="17.162189" fill="white"/></g><g transform="rotate(64.267888 415.395693 54.390059)"><ellipse cx="415.395693" cy="54.390059" rx="15.287488" ry="14.068028" fill="white"/></g><g transform="rotate(30.931075 787.543221 400.342273)"><ellipse cx="787.543221" cy="400.342273" rx="12.780186" ry="11.720423" fill="white"/></g><g transform="rotate(270.505465 76.205363 464.048407)"><ellipse cx="76.205363" cy="464.048407" rx="14.918776" ry="16.567274" fill="white"/></g><g transform="rotate(155.433160 232.578467 484.390305)"><ellipse cx="232.578467" cy="484.390305" rx="15.633789" ry="17.504287" fill="white"/></g><g transform="rotate(290.497583 188.994854 225.268364)"><ellipse cx="188.994854" cy="225.268364" rx="14.480177" ry="12.802082" fill="white"/></g><g transform="rotate(215.223485 166.551953 526.168355)"><ellipse cx="166.551953" cy="526.168355" rx="13.998228" ry="13.713124" fill="white"/></g><g transform="rotate(208.063354 584.034006 462.936363)"><ellipse cx="584.034006" cy="462.936363" rx="11.480952" ry="11.989575" fill="white"/></g><g transform="rotate(97.873915 658.524514 13.352073)"><ellipse cx="658.524514" cy="13.352073" rx="13.910448" ry="12.703740" fill="white"/></g><g transform="rotate(255.970429 188.113230 487.380667)"><ellipse cx="188.113230" cy="487.380667" rx="12.212424" ry="12.007210" fill="white"/></g><g transform="rotate(165.824450 576.343880 374.105898)"><ellipse cx="576.343880" cy="374.105898" rx="14.796972" ry="14.089474" fill="white"/></g><g transform="rotate(266.790859 530.554365 270.000000)"><ellipse cx="530.554365" cy="270.000000" rx="18.102840" ry="17.263557" fill="white"/></g><g transform="rotate(282.590250 782.859446 330.000000)"><ellipse cx="782.859446" cy="330.000000" rx="15.801315" ry="15.926141" fill="white"/></g><g transform="rotate(282.400871 629.698236 457.236355)"><ellipse cx="629.698236" cy="457.236355" rx="12.001155" ry="12.824836" fill="white"/></g><g transform="rotate(308.060235 678.255058 455.975321)"><ellipse cx="678.255058" cy="455.975321" rx="12.221543" ry="13.994019" fill="white"/></g><g transform="rotate(292.452179 308.218950 330.000000)"><ellipse cx="308.218950" cy="330.000000" rx="17.032753" ry="16.688966" fill="white"/></g><g transform="rotate(298.724957 602.404533 227.914323)"><ellipse cx="602.404533" cy="227.914323" rx="19.307152" ry="17.400053" fill="white"/></g><g transform="rotate(116.539158 744.708292 270.000000)"><ellipse cx="744.708292" cy="270.000000" rx="13.580495" ry="13.111439" fill="white"/></g><g transform="rotate(213.764664 158.409507 370.393342)"><ellipse cx="158.409507" cy="370.393342" rx="12.651532" ry="13.303736" fill="white"/></g><g transform="rotate(179.287131 370.927278 52.965831)"><ellipse cx="370.927278" cy="52.965831" rx="13.419533" ry="13.233424" fill="white"/></g><g transform="rotate(14.084137 386.808203 136.117081)"><ellipse cx="386.808203" cy="136.117081" rx="16.594367" ry="15.704332" fill="white"/></g><g transform="rotate(176.339214 487.419708 418.762021)"><ellipse cx="487.419708" cy="418.762021" rx="14.919405" ry="14.180529" fill="white"/></g><g transform="rotate(168.206149 783.600620 580.706574)"><ellipse cx="783.600620" cy="580.706574" rx="16.296233" ry="16.824471" fill="white"/></g><g transform="rotate(114.307637 710.422354 413.911761)"><ellipse cx="710.422354" cy="413.911761" rx="14.941884" ry="15.033751" fill="white"/></g><g transform="rotate(71.034807 403.769075 190.447512)"><ellipse cx="403.769075" cy="190.447512" rx="15.324605" ry="16.426394" fill="white"/></g><g transform="rotate(53.449915 181.284170 270.000000)"><ellipse cx="181.284170" cy="270.000000" rx="13.684366" ry="15.436656" fill="white"/></g><g transform="rotate(44.545926 425.191962 229.568746)"><ellipse cx="425.191962" cy="229.568746" rx="17.449907" ry="15.323076" fill="white"/></g><g transform="rotate(147.397269 57.657920 423.675458)"><ellipse cx="57.657920" cy="423.675458" rx="17.032155" ry="14.234988" fill="white"/></g><g transform="rotate(83.374826 426.556120 386.553160)"><ellipse cx="426.556120" cy="386.553160" rx="13.408396" ry="13.938691" fill="white"/></g><g transform="rotate(327.347735 149.827668 54.712877)"><ellipse cx="149.827668" cy="54.712877" rx="14.096395" ry="13.882375" fill="white"/></g><g transform="rotate(81.215000 548.372681 489.920294)"><ellipse cx="548.372681" cy="489.920294" rx="13.552800" ry="14.525425" fill="white"/></g></svg>