<svg width="800" height="600" xmlns="http://www.w3.org/2000/svg"><rect width="100%" height="100%" fill="black"/><g transform="rotate(222.444292 49.370367 330.000000)"><ellipse cx="49.370367" cy="330.000000" rx="16.105046" ry="17.304917" fill="white"/></g><g transform="rotate(139.558176 273.109047 395.725890)"><ellipse cx="273.109047" cy="395.725890" rx="13.126079" ry="14.118605" fill="white"/></g><g transform="rotate(69.912072 237.816870 16.340289)"><ellipse cx="237.816870" cy="16.340289" rx="17.085921" ry="15.674335" fill="white"/></g><g transform="rotate(319.559011 441.148409 152.166896)"><ellipse cx="441.148409" cy="152.166896" rx="16.455831" ry="16.533162" fill="white"/></g><g transform="rotate(42.706117 650.010096 17.742899)"><ellipse cx="650.010096" cy="17.742899" rx="15.974994" ry="16.613849" fill="white"/></g><g transform="rotate(71.632020 100.440377 580.653093)"><ellipse cx="100.440377" cy="580.653093" rx="14.850394" ry="15.987780" fill="white"/></g><g transform="rotate(177.472803 17.733489 226.746861)"><ellipse cx="17.733489" cy="226.746861" rx="17.092812" ry="18.088245" fill="white"/></g><g transform="rotate(250.435139 185.995615 137.049073)"><ellipse cx="185.995615" cy="137.049073" rx="17.548595" ry="16.590983" fill="white"/></g><g transform="rotate(5.780859 378.874145 330.000000)"><ellipse cx="378.874145" cy="330.000000" rx="16.896677" ry="17.698440" fill="white"/></g><g transform="rotate(118.587312 347.858342 544.589130)"><ellipse cx="347.858342" cy="544.589130" rx="14.196657" ry="16.499652" fill="white"/></g><g transform="rotate(327.197903 721.628593 270.000000)"><ellipse cx="721.628593" cy="270.000000" rx="17.090552" ry="18.586736" fill="white"/></g><g transform="rotate(336.084027 357.406719 459.928272)"><ellipse cx="357.406719" cy="459.928272" rx="13.663008" ry="15.790145" fill="white"/></g><g transform="rotate(78.647789 654.628154 231.226129)"><ellipse cx="654.628154" cy="231.226129" rx="18.632394" ry="18.996034" fill="white"/></g><g transform="rotate(162.381056 714.207126 535.748722)"><ellipse cx="714.207126" cy="535.748722" rx="13.866322" ry="15.288125" fill="white"/></g><g transform="rotate(232.558900 597.178952 171.704398)"><ellipse cx="597.178952" cy="171.704398" rx="12.311730" ry="12.167164" fill="white"/></g><g transform="rotate(32.707302 17.775155 361.646765)"><ellipse cx="17.775155" cy="361.646765" rx="16.295383" ry="18.397977" fill="white"/></g><g transform="rotate(4.108315 524.472200 136.530288)"><ellipse cx="524.472200" cy="136.530288" rx="17.691005" ry="16.416436" fill="white"/></g><g transform="rotate(329.155337 551.254453 270.000000)"><ellipse cx="551.254453" cy="270.000000" rx="18.729160" ry="18.863045" fill="white"/></g><g transform="rotate(149.311988 659.030863 417.171317)"><ellipse cx="659.030863" cy="417.171317" rx="11.743295" ry="13.210457" fill="white"/></g><g transform="rotate(71.600552 465.741846 89.076999)"><ellipse cx="465.741846" cy="89.076999" rx="15.959886" ry="15.137049" fill="white"/></g><g transform="rotate(240.549901 486.314468 49.702515)"><ellipse cx="486.314468" cy="49.702515" rx="15.906184" ry="17.278618" fill="white"/></g><g transform="rotate(217.966919 227.588655 151.212296)"><ellipse cx="227.588655" cy="151.212296" rx="15.889438" ry="14.555428" fill="white"/></g><g transform="rotate(74.785853 530.929003 456.430431)"><ellipse cx="530.929003" cy="456.430431" rx="13.126186" ry="12.433165" fill="white"/></g><g transform="rotate(129.420445 661.906997 60.766475)"><ellipse cx="661.906997" cy="60.766475" rx="14.289788" ry="13.379011" fill="white"/></g><g transform="rotate(46.719493 241.302845 270.000000)"><ellipse cx="241.302845" cy="270.000000" rx="16.034463" ry="18.047053" fill="white"/></g><g transform="rotate(209.537914 413.795765 569.707903)"><ellipse cx="413.795765" cy="569.707903" rx="16.162218" ry="15.029243" fill="white"/></g><g transform="rotate(338.475134 477.806265 412.809804)"><ellipse cx="477.806265" cy="412.809804" rx="13.504989" ry="12.872635" fill="white"/></g><g transform="rotate(220.703347 522.480640 412.693339)"><ellipse cx="522.480640" cy="412.693339" rx="15.184051" ry="15.012019" fill="white"/></g><g transform="rotate(354.940588 371.058154 582.799545)"><ellipse cx="371.058154" cy="582.799545" rx="18.839921" ry="17.010367" fill="white"/></g><g transform="rotate(348.391707 276.761075 506.391393)"><ellipse cx="276.761075" cy="506.391393" rx="15.681658" ry="15.464567" fill="white"/></g><g transform="rotate(237.742189 327.431916 14.329020)"><ellipse cx="327.431916" cy="14.329020" rx="14.084319" ry="15.593022" fill="white"/></g><g transform="rotate(218.909447 400.235531 135.170916)"><ellipse cx="400.235531" cy="135.170916" rx="16.530700" ry="16.085185" fill="white"/></g><g transform="rotate(66.735583 596.633859 513.820485)"><ellipse cx="596.633859" cy="513.820485" rx="13.346333" ry="14.540119" fill="white"/></g><g transform="rotate(104.115828 185.014607 364.414194)"><ellipse cx="185.014607" cy="364.414194" rx="16.076274" ry="14.883699" fill="white"/></g><g transform="rotate(3.117118 285.717746 270.000000)"><ellipse cx="285.717746" cy="270.000000" rx="16.605350" ry="17.691694" fill="white"/></g><g transform="rotate(329.826812 462.398995 270.000000)"><ellipse cx="462.398995" cy="270.000000" rx="14.602946" ry="16.345955" fill="white"/></g><g transform="rotate(235.154932 535.780883 530.562011)"><ellipse cx="535.780883" cy="530.562011" rx="13.846522" ry="13.546544" fill="white"/></g><g transform="rotate(306.432697 721.511743 330.000000)"><ellipse cx="721.511743" cy="330.000000" rx="18.234997" ry="19.062774" fill="white"/></g><g transform="rotate(287.258243 506.608981 330.000000)"><ellipse cx="506.608981" cy="330.000000" rx="12.614341" ry="11.814967" fill="white"/></g><g transform="rotate(58.932802 715.499693 140.568741)"><ellipse cx="715.499693" cy="140.568741" rx="15.303569" ry="14.226883" fill="white"/></g><g transform="rotate(330.438894 700.508366 460.232262)"><ellipse cx="700.508366" cy="460.232262" rx="15.378159" ry="13.237150" fill="white"/></g><g transform="rotate(213.906488 241.892586 192.981326)"><ellipse cx="241.892586" cy="192.981326" rx="13.988781" ry="12.969201" fill="white"/></g><g transform="rotate(320.146362 620.816365 383.433730)"><ellipse cx="620.816365" cy="383.433730" rx="13.746566" ry="12.621080" fill="white"/></g><g transform="rotate(197.546629 351.286510 52.119909)"><ellipse cx="351.286510" cy="52.119909" rx="17.619528" ry="17.575796" fill="white"/></g><g transform="rotate(265.736161 509.855873 94.490403)"><ellipse cx="509.855873" cy="94.490403" rx="14.366030" ry="14.300895" fill="white"/></g><g transform="rotate(131.386123 333.727315 93.205584)"><ellipse cx="333.727315" cy="93.205584" rx="14.498022" ry="14.439995" fill="white"/></g><g transform="rotate(155.772742 574.512460 552.476795)"><ellipse cx="574.512460" cy="552.476795" rx="18.968772" ry="17.642275" fill="white"/></g><g transform="rotate(351.659187 500.030168 374.097368)"><ellipse cx="500.030168" cy="374.097368" rx="12.559211" ry="12.281359" fill="white"/></g><g transform="rotate(252.718990 557.951886 491.794573)"><ellipse cx="557.951886" cy="491.794573" rx="15.687907" ry="15.745494" fill="white"/></g><g transform="rotate(155.685357 654.978174 461.708554)"><ellipse cx="654.978174" cy="461.708554" rx="14.587476" ry="15.631079" fill="white"/></g><g transform="rotate(291.514691 161.651574 451.280693)"><ellipse cx="161.651574" cy="451.280693" rx="16.048398" ry="15.975358" fill="white"/></g><g transform="rotate(180.119600 195.895519 182.669878)"><ellipse cx="195.895519" cy="182.669878" rx="13.860920" ry="15.843571" fill="white"/></g><g transform="rotate(65.164557 263.773780 231.504679)"><ellipse cx="263.773780" cy="231.504679" rx="15.492538" ry="14.655386" fill="white"/></g><g transform="rotate(116.178490 60.893385 373.513404)"><ellipse cx="60.893385" cy="373.513404" rx="14.702586" ry="14.861165" fill="white"/></g><g transform="rotate(74.804960 678.171130 586.715650)"><ellipse cx="678.171130" cy="586.715650" rx="13.638425" ry="13.992710" fill="white"/></g><g transform="rotate(191.165933 152.747411 194.090711)"><ellipse cx="152.747411" cy="194.090711" rx="13.775876" ry="14.405179" fill="white"/></g><g transform="rotate(296.874494 17.545228 270.000000)"><ellipse cx="17.545228" cy="270.000000" rx="17.950044" ry="16.988119" fill="white"/></g><g transform="rotate(301.677198 786.442003 270.000000)"><ellipse cx="786.442003" cy="270.000000" rx="14.211079" ry="12.327886" fill="white"/></g><g transform="rotate(208.764038 532.438357 56.117999)"><ellipse cx="532.438357" cy="56.117999" rx="16.972566" ry="16.500508" fill="white"/></g><g transform="rotate(249.090770 365.979311 503.774741)"><ellipse cx="365.979311" cy="503.774741" rx="13.860949" ry="14.527398" fill="white"/></g><g transform="rotate(331.415932 301.603218 544.854909)"><ellipse cx="301.603218" cy="544.854909" rx="14.015355" ry="13.996442" fill="white"/></g><g transform="rotate(348.855273 227.343247 395.010454)"><ellipse cx="227.343247" cy="395.010454" rx="17.240556" ry="15.295380" fill="white"/></g><g transform="rotate(36.998659 289.512535 330.000000)"><ellipse cx="289.512535" cy="330.000000" rx="14.861604" ry="15.801136" fill="white"/></g><g transform="rotate(252.758448 313.535952 414.822564)"><ellipse cx="313.535952" cy="414.822564" rx="13.083018" ry="12.761536" fill="white"/></g><g transform="rotate(260.034774 311.833746 368.923160)"><ellipse cx="311.833746" cy="368.923160" rx="13.859180" ry="14.989420" fill="white"/></g><g transform="rotate(185.711472 568.897386 137.259216)"><ellipse cx="568.897386" cy="137.259216" rx="15.665284" ry="16.328551" fill="white"/></g><g transform="rotate(135.079106 739.268235 12.641172)"><ellipse cx="739.268235" cy="12.641172" rx="12.921944" ry="12.851882" fill="white"/></g><g transform="rotate(112.420459 145.586936 16.907469)"><ellipse cx="145.586936" cy="16.907469" rx="15.922871" ry="17.711136" fill="white"/></g><g transform="rotate(132.530717 708.651499 372.273337)"><ellipse cx="708.651499" cy="372.273337" rx="12.666238" ry="14.619145" fill="white"/></g><g transform="rotate(221.438721 626.030682 547.145074)"><ellipse cx="626.030682" cy="547.145074" rx="14.669153" ry="17.431432" fill="white"/></g><g transform="rotate(159.171641 260.363906 60.174648)"><ellipse cx="260.363906" cy="60.174648" rx="11.841963" ry="13.120093" fill="white"/></g><g transform="rotate(150.916504 731.575760 200.643835)"><ellipse cx="731.575760" cy="200.643835" rx="12.457818" ry="13.033867" fill="white"/></g><g transform="rotate(26.026275 545.594872 586.460510)"><ellipse cx="545.594872" cy="586.460510" rx="13.323586" ry="13.940353" fill="white"/></g><g transform="rotate(63.799918 327.153904 174.485046)"><ellipse cx="327.153904" cy="174.485046" rx="14.853505" ry="12.924826" fill="white"/></g><g transform="rotate(298.880785 56.685956 14.479566)"><ellipse cx="56.685956" cy="14.479566" rx="13.240459" ry="14.738122" fill="white"/></g><g transform="rotate(302.645922 559.213041 15.497063)"><ellipse cx="559.213041" cy="15.497063" rx="14.722930" ry="15.079408" fill="white"/></g><g transform="rotate(36.065518 514.553035 15.351331)"><ellipse cx="514.553035" cy="15.351331" rx="15.335036" ry="14.611315" fill="white"/></g><g transform="rotate(257.583101 741.952766 500.648871)"><ellipse cx="741.952766" cy="500.648871" rx="14.699194" ry="14.548133" fill="white"/></g><g transform="rotate(0.162193 56.739149 157.065957)"><ellipse cx="56.739149" cy="157.065957" rx="15.963440" ry="18.141740" fill="white"/></g><g transform="rotate(235.174622 94.089878 330.000000)"><ellipse cx="94.089878" cy="330.000000" rx="11.052665" ry="12.183702" fill="white"/></g><g transform="rotate(245.042840 235.567560 585.654118)"><ellipse cx="235.567560" cy="585.654118" rx="14.653079" ry="13.005929" fill="white"/></g><g transform="rotate(317.722161 12.327384 12.327384)"><ellipse cx="12.327384" cy="12.327384" rx="12.063827" ry="11.328120" fill="white"/></g><g transform="rotate(356.484673 395.749863 55.589179)"><ellipse cx="395.749863" cy="55.589179" rx="14.437235" ry="14.385780" fill="white"/></g><g transform="rotate(230.575352 739.662280 99.033524)"><ellipse cx="739.662280" cy="99.033524" rx="15.169728" ry="16.537549" fill="white"/></g><g transform="rotate(255.485663 190.894308 587.450429)"><ellipse cx="190.894308" cy="587.450429" rx="12.666374" ry="12.462444" fill="white"/></g><g transform="rotate(239.653640 193.209741 16.979055)"><ellipse cx="193.209741" cy="16.979055" rx="17.852768" ry="17.331957" fill="white"/></g><g transform="rotate(160.883136 604.086918 585.670747)"><ellipse cx="604.086918" cy="585.670747" rx="14.343177" ry="15.347607" fill="white"/></g><g transform="rotate(170.025684 16.907650 540.008049)"><ellipse cx="16.907650" cy="540.008049" rx="17.604719" ry="17.691810" fill="white"/></g><g transform="rotate(224.990717 722.698805 583.669931)"><ellipse cx="722.698805" cy="583.669931" rx="17.351223" ry="16.640681" fill="white"/></g><g transform="rotate(90.846937 694.601713 14.440491)"><ellipse cx="694.601713" cy="14.440491" rx="14.691912" ry="14.324170" fill="white"/></g><g transform="rotate(236.182471 613.899684 213.058894)"><ellipse cx="613.899684" cy="213.058894" rx="11.813823" ry="13.430619" fill="white"/></g><g transform="rotate(52.547609 441.693947 456.632319)"><ellipse cx="441.693947" cy="456.632319" rx="11.981641" ry="12.991196" fill="white"/></g><g transform="rotate(80.523097 306.732265 53.453341)"><ellipse cx="306.732265" cy="53.453341" rx="14.151194" ry="13.537638" fill="white"/></g><g transform="rotate(133.738385 16.054163 140.421930)"><ellipse cx="16.054163" cy="140.421930" rx="17.112704" ry="16.514631" fill="white"/></g><g transform="rotate(249.160100 611.222437 471.840831)"><ellipse cx="611.222437" cy="471.840831" rx="13.830493" ry="14.986256" fill="white"/></g><g transform="rotate(337.828900 289.544547 94.006561)"><ellipse cx="289.544547" cy="94.006561" rx="16.602166" ry="15.240389" fill="white"/></g><g transform="rotate(48.475588 282.357840 16.263670)"><ellipse cx="282.357840" cy="16.263670" rx="16.892068" ry="16.106270" fill="white"/></g><g transform="rotate(120.802309 480.335874 131.161304)"><ellipse cx="480.335874" cy="131.161304" rx="17.422127" ry="19.125549" fill="white"/></g><g transform="rotate(209.054280 787.677277 80.599231)"><ellipse cx="787.677277" cy="80.599231" rx="11.477688" ry="11.657654" fill="white"/></g><g transform="rotate(110.986117 752.129897 362.096380)"><ellipse cx="752.129897" cy="362.096380" rx="13.604537" ry="15.514534" fill="white"/></g><g transform="rotate(317.159114 140.086728 406.052823)"><ellipse cx="140.086728" cy="406.052823" rx="15.501962" ry="17.377067" fill="white"/></g><g transform="rotate(219.586294 253.012474 355.800795)"><ellipse cx="253.012474" cy="355.800795" rx="12.907418" ry="12.968925" fill="white"/></g><g transform="rotate(258.621100 184.683207 409.119533)"><ellipse cx="184.683207" cy="409.119533" rx="14.485996" ry="14.966323" fill="white"/></g><g transform="rotate(334.338843 129.926934 231.782551)"><ellipse cx="129.926934" cy="231.782551" rx="16.814303" ry="18.161829" fill="white"/></g><g transform="rotate(186.457388 54.315684 112.547074)"><ellipse cx="54.315684" cy="112.547074" rx="16.606041" ry="15.586743" fill="white"/></g><g transform="rotate(223.435761 433.161904 412.802083)"><ellipse cx="433.161904" cy="412.802083" rx="15.921209" ry="17.703590" fill="white"/></g><g transform="rotate(186.944693 391.785400 228.979160)"><ellipse cx="391.785400" cy="228.979160" rx="18.063859" ry="16.019059" fill="white"/></g><g transform="rotate(26.949905 100.074117 149.627500)"><ellipse cx="100.074117" cy="149.627500" rx="13.639690" ry="15.226760" fill="white"/></g><g transform="rotate(193.566119 785.611716 585.611716)"><ellipse cx="785.611716" cy="585.611716" rx="13.606090" ry="13.988714" fill="white"/></g><g transform="rotate(290.321428 149.595508 520.569511)"><ellipse cx="149.595508" cy="520.569511" rx="13.169053" ry="14.669152" fill="white"/></g><g transform="rotate(178.618443 506.806400 270.000000)"><ellipse cx="506.806400" cy="270.000000" rx="14.882181" ry="15.431977" fill="white"/></g><g transform="rotate(292.945709 676.882372 330.000000)"><ellipse cx="676.882372" cy="330.000000" rx="19.011157" ry="17.286332" fill="white"/></g><g transform="rotate(276.188879 461.130601 12.860448)"><ellipse cx="461.130601" cy="12.860448" rx="13.244135" ry="12.193277" fill="white"/></g><g transform="rotate(61.220078 121.346877 365.450991)"><ellipse cx="121.346877" cy="365.450991" rx="17.556046" ry="16.240985" fill="white"/></g><g transform="rotate(179.372961 273.035471 440.422531)"><ellipse cx="273.035471" cy="440.422531" rx="12.625075" ry="12.834079" fill="white"/></g><g transform="rotate(153.972533 398.121464 385.090320)"><ellipse cx="398.121464" cy="385.090320" rx="17.279988" ry="16.910336" fill="white"/></g><g transform="rotate(314.459416 551.203237 330.000000)"><ellipse cx="551.203237" cy="330.000000" rx="13.007849" ry="12.011928" fill="white"/></g><g transform="rotate(307.050338 216.000406 55.120011)"><ellipse cx="216.000406" cy="55.120011" rx="15.841234" ry="17.575081" fill="white"/></g><g transform="rotate(2.875933 373.153302 176.686129)"><ellipse cx="373.153302" cy="176.686129" rx="14.756505" ry="13.722763" fill="white"/></g><g transform="rotate(65.834472 750.816573 55.705826)"><ellipse cx="750.816573" cy="55.705826" rx="15.843346" ry="16.062133" fill="white"/></g><g transform="rotate(348.337401 422.097868 96.282930)"><ellipse cx="422.097868" cy="96.282930" rx="17.204728" ry="18.621866" fill="white"/></g><g transform="rotate(142.953786 324.979884 582.954036)"><ellipse cx="324.979884" cy="582.954036" rx="16.554823" ry="16.923261" fill="white"/></g><g transform="rotate(283.709138 196.920520 270.000000)"><ellipse cx="196.920520" cy="270.000000" rx="14.143490" ry="14.782828" fill="white"/></g><g transform="rotate(101.422305 208.957163 98.834780)"><ellipse cx="208.957163" cy="98.834780" rx="13.553300" ry="13.691953" fill="white"/></g><g transform="rotate(92.706632 404.726944 525.944045)"><ellipse cx="404.726944" cy="525.944045" rx="12.431399" ry="11.639704" fill="white"/></g><g transform="rotate(30.983792 312.748582 460.905096)"><ellipse cx="312.748582" cy="460.905096" rx="11.861117" ry="11.599200" fill="white"/></g><g transform="rotate(22.842632 590.630754 350.679909)"><ellipse cx="590.630754" cy="350.679909" rx="16.294532" ry="14.974796" fill="white"/></g><g transform="rotate(278.371766 784.768192 432.814036)"><ellipse cx="784.768192" cy="432.814036" rx="15.472959" ry="16.183694" fill="white"/></g><g transform="rotate(6.669804 632.467248 270.000000)"><ellipse cx="632.467248" cy="270.000000" rx="15.664577" ry="16.491154" fill="white"/></g><g transform="rotate(193.081814 85.419347 231.952324)"><ellipse cx="85.419347" cy="231.952324" rx="14.680038" ry="17.224167" fill="white"/></g><g transform="rotate(214.558084 404.496700 481.250479)"><ellipse cx="404.496700" cy="481.250479" rx="15.996986" ry="16.246704" fill="white"/></g><g transform="rotate(118.537981 605.337417 15.996737)"><ellipse cx="605.337417" cy="15.996737" rx="14.847112" ry="15.560227" fill="white"/></g><g transform="rotate(68.149032 174.847169 231.823621)"><ellipse cx="174.847169" cy="231.823621" rx="16.857050" ry="15.663842" fill="white"/></g><g transform="rotate(113.663146 330.010989 270.000000)"><ellipse cx="330.010989" cy="270.000000" rx="13.304166" ry="12.926083" fill="white"/></g><g transform="rotate(174.068020 786.346607 521.352466)"><ellipse cx="786.346607" cy="521.352466" rx="13.801507" ry="13.772994" fill="white"/></g><g transform="rotate(347.022862 685.443411 501.676975)"><ellipse cx="685.443411" cy="501.676975" rx="16.391712" ry="17.577564" fill="white"/></g><g transform="rotate(227.438980 144.425004 151.603234)"><ellipse cx="144.425004" cy="151.603234" rx="12.390848" ry="13.529661" fill="white"/></g><g transform="rotate(230.207092 219.215847 231.286924)"><ellipse cx="219.215847" cy="231.286924" rx="18.728967" ry="17.516024" fill="white"/></g><g transform="rotate(182.300513 59.242047 57.908695)"><ellipse cx="59.242047" cy="57.908695" rx="14.952710" ry="17.825416" fill="white"/></g><g transform="rotate(291.774589 569.254743 213.543243)"><ellipse cx="569.254743" cy="213.543243" rx="18.489926" ry="17.755978" fill="white"/></g><g transform="rotate(296.493151 62.190239 270.000000)"><ellipse cx="62.190239" cy="270.000000" rx="18.522172" ry="17.568245" fill="white"/></g><g transform="rotate(278.622473 695.022006 100.834673)"><ellipse cx="695.022006" cy="100.834673" rx="17.065373" ry="17.274026" fill="white"/></g><g transform="rotate(177.458529 486.298096 456.621532)"><ellipse cx="486.298096" cy="456.621532" rx="15.484269" ry="13.931856" fill="white"/></g><g transform="rotate(90.346861 787.813535 388.377946)"><ellipse cx="787.813535" cy="388.377946" rx="11.508833" ry="12.774580" fill="white"/></g><g transform="rotate(301.284095 55.299520 421.472126)"><ellipse cx="55.299520" cy="421.472126" rx="17.469679" ry="14.415381" fill="white"/></g><g transform="rotate(243.746686 591.874865 251.905905)"><ellipse cx="591.874865" cy="251.905905" rx="14.486060" ry="15.055812" fill="white"/></g><g transform="rotate(150.708027 776.863168 123.854825)"><ellipse cx="776.863168" cy="123.854825" rx="18.896379" ry="16.227927" fill="white"/></g><g transform="rotate(341.186579 148.608125 330.000000)"><ellipse cx="148.608125" cy="330.000000" rx="14.062018" ry="15.057876" fill="white"/></g><g transform="rotate(15.858906 650.511174 103.948960)"><ellipse cx="650.511174" cy="103.948960" rx="13.436479" ry="14.502287" fill="white"/></g><g transform="rotate(197.249886 374.052589 270.000000)"><ellipse cx="374.052589" cy="270.000000" rx="16.308863" ry="17.485436" fill="white"/></g><g transform="rotate(118.873592 66.465338 551.572230)"><ellipse cx="66.465338" cy="551.572230" rx="12.308000" ry="14.532541" fill="white"/></g><g transform="rotate(353.001541 618.777543 71.869977)"><ellipse cx="618.777543" cy="71.869977" rx="13.470847" ry="14.129074" fill="white"/></g><g transform="rotate(62.379487 483.008027 230.580689)"><ellipse cx="483.008027" cy="230.580689" rx="17.603948" ry="17.258953" fill="white"/></g><g transform="rotate(200.280367 670.901305 143.717707)"><ellipse cx="670.901305" cy="143.717707" rx="15.108293" ry="14.488636" fill="white"/></g><g transform="rotate(179.576493 418.145432 270.000000)"><ellipse cx="418.145432" cy="270.000000" rx="13.626523" ry="11.594910" fill="white"/></g><g transform="rotate(138.614045 508.269412 495.451102)"><ellipse cx="508.269412" cy="495.451102" rx="17.385631" ry="14.890612" fill="white"/></g><g transform="rotate(193.132142 334.197864 330.000000)"><ellipse cx="334.197864" cy="330.000000" rx="16.005001" ry="18.502233" fill="white"/></g><g transform="rotate(174.471970 349.540604 214.552929)"><ellipse cx="349.540604" cy="214.552929" rx="13.643386" ry="14.200701" fill="white"/></g><g transform="rotate(282.568817 355.950280 135.502278)"><ellipse cx="355.950280" cy="135.502278" rx="12.864246" ry="12.627082" fill="white"/></g><g transform="rotate(356.598205 554.504662 94.991348)"><ellipse cx="554.504662" cy="94.991348" rx="12.097173" ry="13.784749" fill="white"/></g><g transform="rotate(286.188474 574.602420 446.188074)"><ellipse cx="574.602420" cy="446.188074" rx="14.667397" ry="13.371360" fill="white"/></g><g transform="rotate(110.385873 116.933748 450.718559)"><ellipse cx="116.933748" cy="450.718559" rx="12.818665" ry="14.746737" fill="white"/></g><g transform="rotate(356.420265 615.735681 427.683166)"><ellipse cx="615.735681" cy="427.683166" rx="16.754711" ry="16.753327" fill="white"/></g><g transform="rotate(123.033389 286.558947 193.186082)"><ellipse cx="286.558947" cy="193.186082" rx="15.830534" ry="15.703351" fill="white"/></g><g transform="rotate(92.528368 436.446112 229.516507)"><ellipse cx="436.446112" cy="229.516507" rx="14.841387" ry="16.697657" fill="white"/></g><g transform="rotate(343.143155 664.082801 372.772897)"><ellipse cx="664.082801" cy="372.772897" rx="17.626473" ry="17.480570" fill="white"/></g><g transform="rotate(201.915272 13.450879 183.565364)"><ellipse cx="13.450879" cy="183.565364" rx="12.256202" ry="13.423346" fill="white"/></g><g transform="rotate(348.630833 685.362480 186.030278)"><ellipse cx="685.362480" cy="186.030278" rx="14.169028" ry="13.664280" fill="white"/></g><g transform="rotate(67.483322 670.216804 543.185501)"><ellipse cx="670.216804" cy="543.185501" rx="15.368373" ry="16.735147" fill="white"/></g><g transform="rotate(354.177637 377.827481 96.535047)"><ellipse cx="377.827481" cy="96.535047" rx="18.604952" ry="15.781449" fill="white"/></g><g transform="rotate(8.320621 640.966869 505.092384)"><ellipse cx="640.966869" cy="505.092384" rx="11.804054" ry="13.775742" fill="white"/></g><g transform="rotate(26.798283 677.004633 270.000000)"><ellipse cx="677.004633" cy="270.000000" rx="13.918859" ry="13.123048" fill="white"/></g><g transform="rotate(352.625187 250.239038 113.110420)"><ellipse cx="250.239038" cy="113.110420" rx="13.599944" ry="15.806486" fill="white"/></g><g transform="rotate(113.661353 783.737131 330.000000)"><ellipse cx="783.737131" cy="330.000000" rx="14.745391" ry="17.584380" fill="white"/></g><g transform="rotate(319.767028 416.516219 14.480088)"><ellipse cx="416.516219" cy="14.480088" rx="13.652832" ry="13.672784" fill="white"/></g><g transform="rotate(43.612767 280.301380 584.725625)"><ellipse cx="280.301380" cy="584.725625" rx="16.636067" ry="16.453990" fill="white"/></g><g transform="rotate(11.293137 461.977412 330.000000)"><ellipse cx="461.977412" cy="330.000000" rx="15.203794" ry="15.049848" fill="white"/></g><g transform="rotate(333.257897 785.727319 15.452044)"><ellipse cx="785.727319" cy="15.452044" rx="14.911551" ry="15.248227" fill="white"/></g><g transform="rotate(318.777571 699.240699 231.311887)"><ellipse cx="699.240699" cy="231.311887" rx="12.533819" ry="11.013529" fill="white"/></g><g transform="rotate(97.236268 15.975786 54.948756)"><ellipse cx="15.975786" cy="54.948756" rx="16.773041" ry="14.930064" fill="white"/></g><g transform="rotate(80.501342 420.419078 346.349034)"><ellipse cx="420.419078" cy="346.349034" rx="13.248237" ry="12.994508" fill="white"/></g><g transform="rotate(67.522316 169.449025 54.212300)"><ellipse cx="169.449025" cy="54.212300" rx="17.880326" ry="19.155702" fill="white"/></g><g transform="rotate(24.501348 780.391797 477.191817)"><ellipse cx="780.391797" cy="477.191817" rx="15.385398" ry="17.004386" fill="white"/></g><g transform="rotate(203.568587 491.930342 538.656009)"><ellipse cx="491.930342" cy="538.656009" rx="15.555733" ry="17.721832" fill="white"/></g><g transform="rotate(310.177146 15.756955 495.301524)"><ellipse cx="15.756955" cy="495.301524" rx="14.889309" ry="16.572693" fill="white"/></g><g transform="rotate(120.773788 321.375291 504.767093)"><ellipse cx="321.375291" cy="504.767093" rx="15.503648" ry="15.200937" fill="white"/></g><g transform="rotate(105.966347 456.449816 583.014437)"><ellipse cx="456.449816" cy="583.014437" rx="17.592976" ry="18.306586" fill="white"/></g><g transform="rotate(116.800761 356.537903 368.725186)"><ellipse cx="356.537903" cy="368.725186" rx="17.968809" ry="15.492811" fill="white"/></g><g transform="rotate(276.499668 165.247295 97.883636)"><ellipse cx="165.247295" cy="97.883636" rx="15.167772" ry="13.762418" fill="white"/></g><g transform="rotate(91.796189 579.526930 401.743251)"><ellipse cx="579.526930" cy="401.743251" rx="14.154563" ry="13.280075" fill="white"/></g><g transform="rotate(339.916373 447.320542 539.261822)"><ellipse cx="447.320542" cy="539.261822" rx="16.377520" ry="15.952353" fill="white"/></g><g transform="rotate(271.673769 546.028041 175.555378)"><ellipse cx="546.028041" cy="175.555378" rx="11.277055" ry="11.791978" fill="white"/></g><g transform="rotate(86.407125 358.219421 413.401053)"><ellipse cx="358.219421" cy="413.401053" rx="12.027693" ry="13.676649" fill="white"/></g><g transform="rotate(191.013157 256.920861 546.416292)"><ellipse cx="256.920861" cy="546.416292" rx="11.337139" ry="12.261293" fill="white"/></g><g transform="rotate(113.745429 395.938054 437.381918)"><ellipse cx="395.938054" cy="437.381918" rx="12.840690" ry="13.579752" fill="white"/></g><g transform="rotate(313.062221 747.106554 406.534121)"><ellipse cx="747.106554" cy="406.534121" rx="14.213241" ry="13.173215" fill="white"/></g><g transform="rotate(216.693424 641.497775 177.392958)"><ellipse cx="641.497775" cy="177.392958" rx="14.384144" ry="15.365341" fill="white"/></g><g transform="rotate(122.234682 188.388946 542.809787)"><ellipse cx="188.388946" cy="542.809787" rx="11.619084" ry="11.191848" fill="white"/></g><g transform="rotate(123.663898 577.017662 56.404157)"><ellipse cx="577.017662" cy="56.404157" rx="15.573394" ry="14.914708" fill="white"/></g><g transform="rotate(128.220458 754.003077 239.284500)"><ellipse cx="754.003077" cy="239.284500" rx="15.970397" ry="16.293102" fill="white"/></g><g transform="rotate(213.504473 371.962364 12.496267)"><ellipse cx="371.962364" cy="12.496267" rx="11.453517" ry="13.649203" fill="white"/></g><g transform="rotate(221.647929 90.736872 86.880280)"><ellipse cx="90.736872" cy="86.880280" rx="16.739775" ry="18.872544" fill="white"/></g><g transform="rotate(40.186471 124.609295 112.976508)"><ellipse cx="124.609295" cy="112.976508" rx="12.784063" ry="12.112732" fill="white"/></g><g transform="rotate(258.010297 58.777787 507.516568)"><ellipse cx="58.777787" cy="507.516568" rx="14.186150" ry="13.279025" fill="white"/></g><g transform="rotate(9.400000 152.279634 270.000000)"><ellipse cx="152.279634" cy="270.000000" rx="13.245492" ry="13.186301" fill="white"/></g><g transform="rotate(144.280994 744.115507 451.132818)"><ellipse cx="744.115507" cy="451.132818" rx="13.665517" ry="12.388211" fill="white"/></g><g transform="rotate(73.045750 222.385586 513.772222)"><ellipse cx="222.385586" cy="513.772222" rx="15.984943" ry="13.612319" fill="white"/></g><g transform="rotate(254.561171 607.358177 114.994229)"><ellipse cx="607.358177" cy="114.994229" rx="16.660651" ry="16.068159" fill="white"/></g><g transform="rotate(124.747128 440.267663 52.368611)"><ellipse cx="440.267663" cy="52.368611" rx="14.444261" ry="14.305455" fill="white"/></g><g transform="rotate(28.617441 755.183513 553.121589)"><ellipse cx="755.183513" cy="553.121589" rx="15.014615" ry="14.385696" fill="white"/></g><g transform="rotate(244.960609 463.558407 495.642007)"><ellipse cx="463.558407" cy="495.642007" rx="11.693338" ry="13.841297" fill="white"/></g><g transform="rotate(235.136314 501.418693 174.713595)"><ellipse cx="501.418693" cy="174.713595" rx="14.439061" ry="14.370603" fill="white"/></g><g transform="rotate(302.992664 460.474385 192.141654)"><ellipse cx="460.474385" cy="192.141654" rx="13.707028" ry="12.063256" fill="white"/></g><g transform="rotate(19.480601 95.559612 402.016411)"><ellipse cx="95.559612" cy="402.016411" rx="19.651543" ry="18.170147" fill="white"/></g><g transform="rotate(130.895844 632.539365 335.258828)"><ellipse cx="632.539365" cy="335.258828" rx="15.428363" ry="17.918853" fill="white"/></g><g transform="rotate(131.641125 783.481580 205.724483)"><ellipse cx="783.481580" cy="205.724483" rx="15.065222" ry="18.163293" fill="white"/></g><g transform="rotate(181.468048 524.650765 214.762613)"><ellipse cx="524.650765" cy="214.762613" rx="16.749544" ry="17.340010" fill="white"/></g><g transform="rotate(313.332744 271.921502 151.640691)"><ellipse cx="271.921502" cy="151.640691" rx="14.890798" ry="14.428130" fill="white"/></g><g transform="rotate(230.297741 12.300714 97.662541)"><ellipse cx="12.300714" cy="97.662541" rx="12.782830" ry="13.322560" fill="white"/></g><g transform="rotate(138.026202 754.502824 162.424114)"><ellipse cx="754.502824" cy="162.424114" rx="17.609647" ry="15.755639" fill="white"/></g><g transform="rotate(266.214839 311.841015 132.472224)"><ellipse cx="311.841015" cy="132.472224" rx="16.722184" ry="16.534749" fill="white"/></g><g transform="rotate(116.902330 107.631190 193.323267)"><ellipse cx="107.631190" cy="193.323267" rx="14.036507" ry="14.777496" fill="white"/></g><g transform="rotate(303.403823 215.729109 441.259008)"><ellipse cx="215.729109" cy="441.259008" rx="12.858483" ry="11.785654" fill="white"/></g><g transform="rotate(241.449528 101.169102 14.486976)"><ellipse cx="101.169102" cy="14.486976" rx="13.771132" ry="15.363564" fill="white"/></g><g transform="rotate(295.258314 415.831545 189.853653)"><ellipse cx="415.831545" cy="189.853653" rx="12.712720" ry="12.352467" fill="white"/></g><g transform="rotate(55.473621 17.853109 450.629377)"><ellipse cx="17.853109" cy="450.629377" rx="13.060813" ry="11.485552" fill="white"/></g><g transform="rotate(24.565763 122.990201 55.525989)"><ellipse cx="122.990201" cy="55.525989" rx="11.471038" ry="11.824140" fill="white"/></g><g transform="rotate(18.859177 455.396281 374.137102)"><ellipse cx="455.396281" cy="374.137102" rx="16.665322" ry="16.856751" fill="white"/></g><g transform="rotate(179.642921 244.861678 475.127962)"><ellipse cx="244.861678" cy="475.127962" rx="15.564720" ry="16.430536" fill="white"/></g><g transform="rotate(99.959638 74.781728 465.658681)"><ellipse cx="74.781728" cy="465.658681" rx="12.783212" ry="11.515799" fill="white"/></g><g transform="rotate(268.626785 183.217760 490.458489)"><ellipse cx="183.217760" cy="490.458489" rx="12.151056" ry="14.726322" fill="white"/></g><g transform="rotate(244.202609 544.662493 374.011956)"><ellipse cx="544.662493" cy="374.011956" rx="11.914998" ry="13.371770" fill="white"/></g><g transform="rotate(31.126794 215.410440 331.619560)"><ellipse cx="215.410440" cy="331.619560" rx="12.763165" ry="14.493335" fill="white"/></g><g transform="rotate(278.448014 308.359167 231.541720)"><ellipse cx="308.359167" cy="231.541720" rx="17.117879" ry="17.591228" fill="white"/></g><g transform="rotate(145.054421 13.293026 406.141206)"><ellipse cx="13.293026" cy="406.141206" rx="11.974012" ry="14.524770" fill="white"/></g><g transform="rotate(173.161799 107.629396 270.000000)"><ellipse cx="107.629396" cy="270.000000" rx="13.496062" ry="12.343377" fill="white"/></g><g transform="rotate(341.291620 501.116804 582.410807)"><ellipse cx="501.116804" cy="582.410807" rx="15.657025" ry="17.337531" fill="white"/></g><g transform="rotate(308.846753 54.097257 201.161154)"><ellipse cx="54.097257" cy="201.161154" rx="12.483137" ry="13.317833" fill="white"/></g><g transform="rotate(151.072630 706.318987 57.583599)"><ellipse cx="706.318987" cy="57.583599" rx="15.352179" ry="16.405993" fill="white"/></g><g transform="rotate(92.400359 703.580576 416.172171)"><ellipse cx="703.580576" cy="416.172171" rx="15.451644" ry="17.065289" fill="white"/></g></svg>